<svg width="2693" height="2508" viewBox="0 0 2693 2508" fill="none" xmlns="http://www.w3.org/2000/svg">
    <ellipse cx="1441.5" cy="1015" rx="1019.5" ry="1015" fill="#597EF7"/>
    <path fill-rule="evenodd" clip-rule="evenodd" d="M1385.7 299.038C1385.7 299.038 1241.5 318.617 1238.25 400.288C1236.58 442.292 1276.53 489.089 1256.19 501.354C1176.73 549.304 1261.1 572.324 1210.47 611.212C1135.17 669.062 1177.35 772.622 1255.39 768.056C1336.24 763.328 1294.51 875.912 1434.31 847.352C1513.1 831.257 1536.4 814.751 1592.73 788.809C1649.06 762.868 1687.25 619.652 1620.9 546.864C1579.69 500.819 1538.94 504.07 1517.44 428.772C1495.94 353.48 1474.51 307.104 1437.12 312.184C1424.11 292.513 1385.7 299.038 1385.7 299.038Z" fill="#253368"/>
    <path fill-rule="evenodd" clip-rule="evenodd" d="M1296.65 473.273C1296.31 471.696 1294.11 471.539 1293.54 473.057C1288.54 486.468 1276.42 522.714 1290.8 524.891C1307.02 527.348 1299.8 487.715 1296.65 473.273Z" fill="white"/>
    <path fill-rule="evenodd" clip-rule="evenodd" d="M1425.98 588.372C1412.28 524.472 1410.42 499 1410.42 499L1332 531.78L1336.57 600.854C1338.25 626.282 1360.72 645.272 1386.17 642.78C1413.08 640.142 1431.64 614.725 1425.98 588.372Z" fill="#F4B784"/>
    <path fill-rule="evenodd" clip-rule="evenodd" d="M1388.02 384.989C1388.02 384.989 1379.79 359.11 1361.64 370.44C1348.67 378.54 1352.4 371.506 1349.97 364.515C1340.93 338.56 1332.53 397.802 1291.34 408.667C1288.89 440.454 1282.53 555.496 1351.83 552.959C1374.21 552.142 1412.03 541.217 1428 503.202C1437.65 480.234 1431.93 455.826 1422.76 450.567C1392.57 433.236 1394.04 417.156 1388.02 384.989Z" fill="#FFC999"/>
    <path d="M1329.14 411.056C1328.15 411.292 1327.5 412.219 1327.57 413.215L1327.62 413.548L1331.4 429.788L1331.12 432.667L1330.86 435.046C1330.62 437.118 1330.34 439.417 1329.99 441.932C1328.63 452.006 1326.68 463.446 1324.04 476.032C1323.84 476.994 1324.34 477.966 1325.23 478.361C1329.85 480.411 1334.58 481.717 1339.18 482.428C1341.75 482.826 1343.87 482.983 1345.39 483L1346 482.999C1347.13 482.973 1348.03 482.024 1348 480.879C1347.98 479.849 1347.21 479.012 1346.24 478.874L1345.91 478.854H1345.41L1344.31 478.817C1343.1 478.753 1341.57 478.604 1339.8 478.33C1336.6 477.836 1333.33 477.031 1330.09 475.859L1328.4 475.207L1328.65 473.985C1330.81 463.4 1332.48 453.65 1333.72 444.867L1334.05 442.495C1334.47 439.44 1334.8 436.697 1335.06 434.282L1335.37 431.3L1335.5 429.787L1335.45 429.154L1331.6 412.598C1331.37 411.595 1330.45 410.936 1329.47 411.005L1329.14 411.056Z" fill="#DD936F"/>
    <path d="M1373.82 482.739C1373.27 481.35 1371.63 480.65 1370.17 481.174L1368.29 481.809C1367.95 481.92 1367.57 482.041 1367.15 482.171C1364.73 482.93 1362.06 483.691 1359.22 484.4C1353.28 485.887 1347.43 486.946 1341.99 487.393C1337.63 487.751 1333.69 487.698 1330.26 487.188C1328.72 486.958 1327.28 487.961 1327.03 489.428C1326.79 490.895 1327.85 492.27 1329.39 492.5C1333.31 493.083 1337.7 493.142 1342.48 492.749C1348.27 492.274 1354.43 491.159 1360.66 489.6C1363.62 488.861 1366.4 488.069 1368.92 487.277L1371.12 486.568C1371.55 486.421 1371.91 486.298 1372.17 486.204C1373.63 485.68 1374.37 484.128 1373.82 482.739Z" fill="#C44343"/>
    <path d="M1330.24 407.383C1314.93 401.333 1303.28 400.065 1295.21 401.587C1294.06 401.803 1293.26 402.033 1292.79 402.212C1291.39 402.743 1290.66 404.397 1291.15 405.906C1291.6 407.288 1292.93 408.069 1294.22 407.78L1294.87 407.579C1295.14 407.501 1295.56 407.4 1296.13 407.293C1303.26 405.95 1313.96 407.114 1328.4 412.823C1329.79 413.372 1331.33 412.599 1331.84 411.097C1332.34 409.594 1331.63 407.932 1330.24 407.383Z" fill="#253368"/>
    <path d="M1390.6 402.477C1382.19 401.703 1373.14 401.791 1364.58 403.341C1360.26 404.121 1356.27 405.253 1352.67 406.779C1351.27 407.369 1350.63 408.968 1351.22 410.349C1351.82 411.73 1353.43 412.371 1354.83 411.78C1358.03 410.424 1361.63 409.403 1365.56 408.691C1373.56 407.244 1382.14 407.161 1390.1 407.893L1391.88 408.073C1392.75 408.17 1393.41 408.257 1393.83 408.322C1395.33 408.555 1396.73 407.54 1396.97 406.056C1397.2 404.572 1396.18 403.181 1394.68 402.948L1393.57 402.797L1392.17 402.634C1391.68 402.58 1391.16 402.528 1390.6 402.477Z" fill="#253368"/>
    <path d="M1346.19 504.001C1345.01 503.975 1344.03 504.811 1344 505.868C1343.97 506.82 1344.73 507.626 1345.74 507.797L1346.09 507.83L1353.81 507.999C1354.99 508.025 1355.97 507.189 1356 506.132C1356.03 505.18 1355.27 504.374 1354.26 504.203L1353.91 504.17L1346.19 504.001Z" fill="#DD936F"/>
    <path fill-rule="evenodd" clip-rule="evenodd" d="M1468.9 468.774C1475.49 442.353 1450.23 443.001 1450.23 443.001C1450.23 443.001 1448.74 469.53 1441 492.999C1466.29 493.197 1468.9 468.774 1468.9 468.774Z" fill="#FFC999"/>
    <path fill-rule="evenodd" clip-rule="evenodd" d="M1453.65 487.275C1453.31 485.692 1451.11 485.541 1450.54 487.059C1445.54 500.469 1433.42 536.709 1447.8 538.891C1464.02 541.348 1456.8 501.717 1453.65 487.275Z" fill="white"/>
    <path d="M1321.13 438.001C1319.59 438.037 1318.37 439.335 1318.4 440.9C1318.52 446.193 1315.74 450.26 1312.71 450.328C1309.67 450.4 1306.71 446.466 1306.59 441.173C1306.56 439.608 1305.28 438.368 1303.73 438.403C1302.19 438.439 1300.97 439.737 1301 441.303C1301.18 449.408 1306.26 456.152 1312.84 455.997C1319.41 455.85 1324.18 448.876 1323.99 440.77C1323.96 439.205 1322.68 437.965 1321.13 438.001Z" fill="#253368"/>
    <path d="M1382.26 439.001C1380.78 439.035 1379.61 440.26 1379.65 441.739C1379.76 446.736 1377.1 450.576 1374.2 450.644C1371.3 450.711 1368.46 446.996 1368.35 441.997C1368.32 440.518 1367.09 439.347 1365.61 439.381C1364.14 439.415 1362.97 440.641 1363 442.119C1363.18 449.775 1368.03 456.144 1374.33 455.998C1380.61 455.851 1385.17 449.269 1385 441.617C1384.96 440.138 1383.74 438.967 1382.26 439.001Z" fill="#253368"/>
    <path fill-rule="evenodd" clip-rule="evenodd" d="M1049.57 896.69C1049.57 896.69 1155.24 726.003 1179.01 696.421C1236.45 624.97 1294.24 642.825 1306.25 693.562C1320.72 754.732 1121.59 957.412 1121.59 957.412C1121.59 957.412 1097.1 986.627 1060.53 965.066C1017.31 939.584 1049.57 896.69 1049.57 896.69Z" fill="#FFC999"/>
    <path fill-rule="evenodd" clip-rule="evenodd" d="M1119 780.026C1130.13 764.605 1208.98 614.39 1270.82 653.463C1323.21 686.567 1310.94 739.58 1223.63 845L1119 780.026Z" fill="#597EF7"/>
    <path fill-rule="evenodd" clip-rule="evenodd" d="M921 641.463C982.511 821.551 992.356 868.366 1022.14 923.758C1071.59 1015.74 1145.14 969.145 1125.85 914.392C1113.74 880.032 1074.17 818.807 1045.5 762.674C1005.08 683.555 973.111 627 973.111 627L921 641.463Z" fill="#FFC999"/>
    <path d="M1084.99 838.035C1084.4 837.045 1083.09 836.706 1082.07 837.278C1081.15 837.793 1080.77 838.87 1081.14 839.801L1081.29 840.106L1114.01 894.965C1114.6 895.955 1115.91 896.294 1116.93 895.722C1117.85 895.207 1118.23 894.13 1117.86 893.199L1117.71 892.894L1084.99 838.035Z" fill="#DD936F"/>
    <path fill-rule="evenodd" clip-rule="evenodd" d="M974.16 629.603L937.875 526.836C937.875 526.836 883.965 445.016 866.784 451.35C850.969 459.509 889.285 481.469 898.111 504.995C882.556 504.876 891.057 527.459 891.057 527.459C891.057 527.459 878.698 527.795 883.212 546.352C872.202 553.857 882.746 574.809 882.746 574.809C882.746 574.809 909.359 630.075 937.246 666.29C937.246 666.29 981.594 696.236 974.16 629.603Z" fill="#FFC999"/>
    <path fill-rule="evenodd" clip-rule="evenodd" d="M965.642 594.159C965.642 594.159 958.863 558.626 954.346 540.589C949.828 522.552 955.506 489.111 942.601 498.692C933.916 505.131 936.758 524.633 938.018 539.069C939.277 553.5 917.846 589.249 936.994 611.86C949.932 627.134 968.839 628.059 965.642 594.159Z" fill="#FFC999"/>
    <path d="M899.491 503.552C898.649 502.774 897.333 502.825 896.553 503.665C895.773 504.505 895.824 505.817 896.667 506.595L897.615 507.493C898.38 508.23 899.235 509.071 900.156 510.004C902.788 512.668 905.42 515.519 907.871 518.437C910.371 521.412 912.54 524.289 914.281 526.999C919.667 535.384 920.27 540.8 915.667 543.067C914.637 543.574 914.215 544.818 914.723 545.844C915.232 546.871 916.479 547.292 917.508 546.785C925.228 542.983 924.336 534.964 917.782 524.762C915.936 521.889 913.664 518.874 911.058 515.773C908.529 512.762 905.823 509.831 903.118 507.093L901.751 505.726L899.79 503.831C899.667 503.715 899.567 503.621 899.491 503.552Z" fill="#DD936F"/>
    <path d="M890.72 526.927C890.081 527.887 890.336 529.186 891.29 529.829L892.261 530.503C893.047 531.056 893.924 531.691 894.869 532.395C897.569 534.407 900.268 536.572 902.781 538.8C905.705 541.394 908.179 543.902 910.052 546.243C914.207 551.437 914.857 554.869 912.071 556.846C910.582 557.902 908.778 558.083 906.579 557.452C904.224 556.777 901.593 555.21 898.892 553.019C897.538 551.921 896.257 550.739 895.093 549.558L893.829 548.223C893.76 548.145 893.699 548.076 893.648 548.017C892.896 547.145 891.583 547.051 890.716 547.808C889.849 548.565 889.756 549.886 890.509 550.758L890.998 551.306C891.3 551.634 891.684 552.039 892.142 552.504C893.408 553.789 894.801 555.072 896.283 556.275C899.38 558.787 902.455 560.619 905.44 561.475C908.763 562.428 911.853 562.117 914.466 560.264C919.88 556.423 918.747 550.441 913.289 543.62C911.249 541.07 908.617 538.401 905.529 535.662C902.92 533.348 900.131 531.112 897.342 529.034L895.934 527.998L893.604 526.354C892.65 525.711 891.359 525.968 890.72 526.927Z" fill="#DD936F"/>
    <path d="M887.291 545.009C886.138 544.903 885.116 545.741 885.009 546.879C884.902 548.018 885.75 549.027 886.903 549.132C889.371 549.359 892.666 551.361 896.753 555.539C905.311 564.287 907.317 570.056 905.183 571.476C902.917 572.983 896.991 570.755 892.934 565.739C891.308 563.729 888.167 565.867 889.49 568.083C894.102 575.807 899.253 581.449 905.234 585.76L906.816 586.875C909.848 588.953 912.285 590.231 917.705 592.675L921.799 594.499C934.48 600.104 939.423 604.734 942.877 617.465C943.177 618.569 944.327 619.225 945.445 618.929C946.564 618.633 947.228 617.498 946.928 616.393C943.203 602.665 937.563 597.098 924.638 591.224L918.701 588.57C913.23 586.083 911.143 584.892 907.706 582.415C905.132 580.56 902.722 578.434 900.443 575.958L900.086 575.555L900.555 575.684C902.978 576.283 905.263 576.167 907.051 575.197L907.526 574.91C912.828 571.382 909.932 563.05 899.769 552.662C895.05 547.839 890.946 545.344 887.291 545.009Z" fill="#DD936F"/>
    <path d="M936.096 519C935.132 518.98 934.318 519.723 934.15 520.716L934.119 521.055L933.635 548.526L933.139 549.621L932.761 550.502C931.963 552.401 931.165 554.517 930.421 556.802C928.161 563.741 926.858 570.718 927.012 577.297C927.151 583.239 928.491 588.56 931.234 593.057C931.824 594.023 933.028 594.291 933.923 593.655C934.818 593.018 935.066 591.719 934.477 590.753C932.164 586.962 931.015 582.398 930.893 577.192C930.752 571.192 931.967 564.69 934.083 558.192C934.788 556.029 935.542 554.026 936.296 552.234L936.884 550.879C937.049 550.51 937.183 550.227 937.277 550.035C937.372 549.841 937.439 549.633 937.474 549.418L937.504 549.092L938 521.135C938.02 519.978 937.168 519.023 936.096 519Z" fill="#DD936F"/>
    <path fill-rule="evenodd" clip-rule="evenodd" d="M1322.19 1811.04C1322.31 1809.6 1233.01 2284.02 1234 2309.66C1236.69 2379.65 1239.54 2389.37 1202.68 2409.4C1193.24 2414.53 1178.49 2409.72 1163.91 2427.36C1123.99 2475.63 1064.02 2504.42 1055.27 2477.9C1049.31 2452.99 1144.58 2369.14 1152.37 2316.87C1160.46 2262.57 1179.66 1782.75 1189.94 1735.84C1208.31 1651.96 1340.91 1512.37 1322.19 1811.04Z" fill="#FFC999"/>
    <path fill-rule="evenodd" clip-rule="evenodd" d="M1227.28 2417.42C1227.28 2417.42 1243.62 2378.38 1233.93 2332C1233.93 2332 1197.77 2362.54 1171.39 2395.25C1140.92 2433.02 1133.25 2435.18 1133.25 2435.18C1093.56 2449.25 1083.58 2426.67 1083.58 2426.67C1083.58 2426.67 1062.81 2455.66 1022.72 2487.6C986.834 2516.2 1130.75 2515.97 1148.95 2478.98C1167.16 2441.98 1192.23 2419.78 1192.23 2419.78L1205.7 2474.2L1219.37 2473.27L1227.28 2417.42Z" fill="#253368"/>
    <path fill-rule="evenodd" clip-rule="evenodd" d="M1167.61 1633.79L1131 2195.36L1365.8 2203C1365.8 2203 1378.59 1930.09 1387.41 1650.13C1387.41 1650.13 1402 1504.5 1285.94 1498.2C1169.88 1491.91 1167.61 1633.79 1167.61 1633.79Z" fill="#E4EBF7"/>
    <path fill-rule="evenodd" clip-rule="evenodd" d="M1170.77 1636.07C1180.46 1410.19 1206.35 1168.83 1227.85 1119.8C1227.85 1119.8 1253.72 1090.42 1329.02 1139.02C1416.82 1195.69 1399.64 1267.26 1399.64 1267.26L1385.85 1647.94C1383.53 1677.79 1372.83 1770.4 1257.68 1756.61C1144.33 1743.03 1170.56 1640.99 1170.77 1636.07Z" fill="#E4EBF7"/>
    <path fill-rule="evenodd" clip-rule="evenodd" d="M1447.14 986.992C1403.65 1001.06 1291.58 1002.18 1277.99 997.556C1264.41 992.93 1274.63 967.169 1274.63 967.169C1214.69 833.633 1215.53 835.637 1211.5 807.536C1207.49 779.625 1229.01 729.161 1229.01 729.161C1229.01 729.161 1209.95 676.091 1215.83 660.413C1223.78 639.214 1301.78 642.475 1315.79 633.905C1329.8 625.329 1328.1 597.683 1328.1 597.683L1434.79 587C1434.79 587 1437.94 618.259 1444.47 627.453C1457.17 645.309 1496.63 623.52 1528.01 659.205C1584.1 722.985 1486.02 859.117 1454.12 946.501C1454.12 946.501 1469.12 966.037 1447.14 986.992Z" fill="#597EF7"/>
    <path d="M1410.91 632.024L1321.35 643.774C1319.87 643.969 1318.82 645.292 1319.03 646.728C1319.21 648.045 1320.38 649 1321.72 649L1322.09 648.976L1411.65 637.226C1413.13 637.031 1414.18 635.708 1413.97 634.272C1413.79 632.955 1412.62 632 1411.28 632L1410.91 632.024Z" fill="#253368"/>
    <path d="M1388.74 647.061L1327.13 660.541C1325.68 660.859 1324.75 662.326 1325.06 663.816C1325.35 665.183 1326.57 666.095 1327.9 665.992L1328.26 665.938L1389.87 652.459C1391.32 652.141 1392.25 650.674 1391.94 649.184C1391.65 647.817 1390.43 646.905 1389.1 647.008L1388.74 647.061Z" fill="#253368"/>
    <path d="M1439.14 787.737C1438.04 786.703 1436.33 786.764 1435.31 787.874L1434.87 788.319C1434.27 788.92 1433.31 789.796 1432 790.873C1429.14 793.216 1425.72 795.567 1421.72 797.767C1405.93 806.462 1386.46 810.254 1363.29 806.387L1361.29 806.037C1352.83 804.477 1332.9 804.703 1304.63 806.239L1296.75 806.689C1292.75 806.928 1288.66 807.187 1284.5 807.465L1280.32 807.749C1272.78 808.268 1265.39 808.819 1258.35 809.374L1244.48 810.518C1242.99 810.649 1241.88 811.98 1242.01 813.491C1242.14 815.002 1243.45 816.121 1244.95 815.99L1253.64 815.261L1262.31 814.573C1268.25 814.114 1274.42 813.66 1280.68 813.229L1288.98 812.675C1293.08 812.41 1297.1 812.165 1301.03 811.94L1310.36 811.439C1334.66 810.223 1352.14 810.094 1359.78 811.347L1360.32 811.441C1385.64 816.103 1407.02 812.114 1424.31 802.592C1428.61 800.227 1432.31 797.688 1435.41 795.141L1436.58 794.156C1437.84 793.068 1438.74 792.196 1439.27 791.619C1440.29 790.509 1440.23 788.771 1439.14 787.737Z" fill="#253368"/>
    <path d="M1230.67 695.002C1229.31 694.955 1228.16 695.934 1227.93 697.248L1227.9 697.615L1226.82 729.402L1226.24 730.76C1225.63 732.234 1224.94 733.921 1224.2 735.796C1222.1 741.148 1220 746.938 1218.03 752.96C1215.37 761.113 1213.18 769.052 1211.61 776.549C1209.62 786.07 1208.71 794.546 1209.08 801.735C1209.67 813.119 1212.81 827.523 1218.03 844.289C1220.59 852.512 1223.61 861.147 1226.98 870.053C1230.9 880.385 1235.09 890.545 1239.29 900.101L1241.41 904.877L1244.09 910.74C1244.45 911.514 1244.72 912.093 1244.9 912.465C1245.54 913.813 1247.14 914.38 1248.48 913.732C1249.81 913.084 1250.38 911.466 1249.73 910.118L1248.22 906.864L1246.3 902.641C1245.63 901.146 1244.93 899.566 1244.2 897.908C1240.04 888.433 1235.88 878.357 1232 868.119C1228.66 859.31 1225.68 850.777 1223.15 842.666C1218.06 826.297 1215 812.297 1214.44 801.454C1214.1 794.8 1214.96 786.765 1216.87 777.667C1218.39 770.382 1220.53 762.628 1223.13 754.653C1224.74 749.725 1226.44 744.952 1228.16 740.455L1229.19 737.792C1229.77 736.321 1230.32 734.97 1230.82 733.751L1231.93 731.106C1232.03 730.895 1232.09 730.674 1232.13 730.447L1232.16 730.105L1233.26 697.801C1233.31 696.306 1232.15 695.053 1230.67 695.002Z" fill="#253368"/>
    <path fill-rule="evenodd" clip-rule="evenodd" d="M1314.46 1283L1213 1187.24C1213 1187.24 1224.97 1077.37 1273.28 1026.28L1457.9 1006C1457.9 1006 1534.29 1043 1570 1182.12L1406.86 1276.86L1314.46 1283Z" fill="#E4EBF7"/>
    <path fill-rule="evenodd" clip-rule="evenodd" d="M1462 1008.47L1274 1027L1276.51 997.764L1453.52 979L1462 1008.47Z" fill="#E4EBF7"/>
    <path d="M1339.8 1022C1338.67 1021.96 1337.72 1022.83 1337.67 1023.95C1336.95 1041.86 1336.82 1061.22 1337.24 1081.81C1338.02 1119.93 1340.62 1160.71 1344.46 1201.89L1345.22 1209.88C1346.5 1223.05 1347.84 1235.53 1349.18 1247.1L1350.25 1256.13L1351.92 1269.24C1352.07 1270.35 1353.1 1271.13 1354.22 1270.98C1355.34 1270.83 1356.13 1269.81 1355.98 1268.7L1354.95 1260.72C1354.55 1257.51 1354.12 1253.95 1353.66 1250.07L1352.85 1243.15C1351.38 1230.25 1349.92 1216.28 1348.54 1201.52C1344.71 1160.43 1342.12 1119.74 1341.34 1081.73C1340.92 1061.22 1341.05 1041.94 1341.77 1024.11C1341.82 1022.99 1340.94 1022.05 1339.8 1022Z" fill="#A3B5D6"/>
    <path d="M1461.77 1008L1276.85 1024.99C1275.73 1025.09 1274.9 1026.07 1275.01 1027.18C1275.1 1028.17 1275.92 1028.93 1276.9 1029L1277.23 1029L1462.15 1012.01C1463.27 1011.91 1464.1 1010.93 1463.99 1009.82C1463.9 1008.83 1463.08 1008.07 1462.1 1008L1461.77 1008Z" fill="#A3B5D6"/>
    <path fill-rule="evenodd" clip-rule="evenodd" d="M1465 1917.58C1464.78 1916.16 1505.56 2271.4 1506.33 2297.04C1508.42 2367.04 1500.63 2376.88 1538.64 2394.37C1548.37 2398.85 1562.71 2393.06 1578.4 2409.67C1621.38 2455.14 1682.96 2479.8 1689.87 2452.77C1694.1 2427.51 1593.66 2350.31 1582.35 2298.69C1570.61 2245.07 1627.52 1825.28 1589.54 1795.8C1551.55 1766.32 1469.35 1622.91 1465 1917.58Z" fill="#FFC999"/>
    <path fill-rule="evenodd" clip-rule="evenodd" d="M1514.62 2404.13C1514.62 2404.13 1501.28 2366.6 1507.79 2320C1507.79 2320 1540.35 2347.79 1568.93 2378.41C1601.93 2413.77 1609.75 2415.4 1609.75 2415.4C1650.33 2426.67 1658.77 2403.62 1658.77 2403.62C1658.77 2403.62 1681.49 2430.95 1723.7 2459.89C1761.5 2485.81 1617.75 2495.26 1597.04 2459.84C1576.34 2424.41 1549.78 2404.11 1549.78 2404.11L1540.04 2458.93L1526.32 2458.92L1514.62 2404.13Z" fill="#253368"/>
    <path fill-rule="evenodd" clip-rule="evenodd" d="M1608.96 1576.25L1658 2188.15L1441.05 2206C1441.05 2206 1403 1876.11 1389.85 1595.98C1389.85 1595.98 1373.03 1450.42 1488.76 1442.33C1604.5 1434.24 1608.96 1576.25 1608.96 1576.25Z" fill="#E4EBF7"/>
    <path fill-rule="evenodd" clip-rule="evenodd" d="M1390.93 1585.6C1365.88 1361.1 1354.06 1113.28 1367.81 1061.62C1367.81 1061.62 1388.88 1028.68 1470.76 1065.26C1566.24 1107.9 1569.27 1188.67 1569.27 1188.67L1610.85 1563.44C1613.14 1593.26 1622.27 1679.98 1507.34 1695.64C1394.21 1711.06 1391.47 1590.49 1390.93 1585.6Z" fill="#E4EBF7"/>
    <path fill-rule="evenodd" clip-rule="evenodd" d="M1534.88 946.916C1534.88 946.916 1461.17 789.18 1449.7 749.891C1422.02 654.99 1464.93 636.465 1514.21 658.187C1573.61 684.373 1645.61 942.149 1645.61 942.149C1645.61 942.149 1651.98 974.843 1613.38 992.838C1567.77 1014.11 1534.88 946.916 1534.88 946.916Z" fill="#FFC999"/>
    <path fill-rule="evenodd" clip-rule="evenodd" d="M1490.41 851C1484.1 833.121 1384.58 681.609 1471.33 643.136C1527.93 618.035 1558.45 669.723 1608 802.292L1490.41 851Z" fill="#597EF7"/>
    <path fill-rule="evenodd" clip-rule="evenodd" d="M1260.16 963.921C1261.8 980.532 1275.56 993.296 1292.21 993.656L1584.9 999.986C1618.51 1000.71 1645.41 972.218 1642.83 938.625C1640.31 905.79 1610.62 881.928 1578.09 886.58L1288.27 928.018C1270.82 930.513 1258.43 946.34 1260.16 963.921Z" fill="#FFC999"/>
    <path fill-rule="evenodd" clip-rule="evenodd" d="M1283.61 1038.48L1219.26 838.045C1218.2 834.738 1215.14 832.481 1211.65 832.432L1031.21 830.001C1025.61 829.926 1021.62 835.404 1023.45 840.681L1090.62 1035.79C1091.69 1038.93 1094.6 1041.09 1097.92 1041.24L1275.54 1048.99C1281.17 1049.24 1285.33 1043.82 1283.61 1038.48Z" fill="#253368"/>
    <path fill-rule="evenodd" clip-rule="evenodd" d="M1274.53 1036.25L1211.14 839.259C1209.85 835.258 1206.13 832.524 1201.9 832.465L1018.76 830.001C1014.83 829.947 1012.04 833.78 1013.31 837.473L1081.59 1035.34C1082.79 1038.81 1086.01 1041.2 1089.7 1041.36L1264.73 1048.99C1271.57 1049.29 1276.61 1042.73 1274.53 1036.25Z" fill="#253368"/>
    <path fill-rule="evenodd" clip-rule="evenodd" d="M1186.15 851.564C1184.11 853.899 1184.85 858 1187.8 860.727C1190.75 863.454 1194.8 863.773 1196.84 861.437C1198.89 859.101 1198.15 855 1195.2 852.268C1192.25 849.546 1188.2 849.228 1186.15 851.564Z" fill="#ADC6FF"/>
    <path fill-rule="evenodd" clip-rule="evenodd" d="M1188.62 853.841C1187.52 855.099 1187.92 857.309 1189.51 858.781C1191.09 860.243 1193.28 860.416 1194.38 859.158C1195.48 857.9 1195.08 855.691 1193.49 854.224C1191.91 852.757 1189.72 852.583 1188.62 853.841Z" fill="#E4EBF7"/>
    <path fill-rule="evenodd" clip-rule="evenodd" d="M1203.46 1000.64C1193.07 999.641 1187.61 995.344 1188.59 986.778C1176.1 982.886 1177.5 972.411 1177.5 972.411C1177.5 972.411 1153.46 972.045 1149.42 961.878C1147.85 957.926 1150.9 953.694 1155.17 953.409C1206.67 949.953 1243.39 922.934 1243.39 922.934C1243.39 922.934 1223.15 893.49 1225.29 879.905C1225.92 875.883 1231.23 874.589 1233.71 877.829C1254.94 905.576 1297.52 927.333 1297.52 927.333C1297.52 927.333 1348.63 974.746 1293.18 996.25C1293.18 996.25 1250.93 1012.92 1221.5 1010.82C1207.57 1009.81 1203.46 1000.64 1203.46 1000.64Z" fill="#FFC999"/>
    <path d="M1214.8 963.814C1214.37 963.048 1213.4 962.774 1212.63 963.202C1208.95 965.257 1204.64 966.931 1199.84 968.254C1194.13 969.829 1187.99 970.836 1181.81 971.383C1178.7 971.658 1176.05 971.783 1174.06 971.814L1172.61 971.82C1171.73 971.808 1171.01 972.51 1171 973.388C1170.99 974.168 1171.54 974.824 1172.29 974.969L1172.57 974.999L1173.35 975C1175.49 974.99 1178.5 974.867 1182.09 974.549C1188.45 973.986 1194.77 972.949 1200.69 971.318C1205.72 969.932 1210.26 968.167 1214.18 965.977C1214.95 965.548 1215.23 964.58 1214.8 963.814Z" fill="#DD936F"/>
    <path d="M1219.84 978.963C1219.46 978.116 1218.5 977.761 1217.71 978.17L1216.28 978.883C1210.17 981.831 1203.6 983.723 1197 984.761C1192.93 985.401 1189.67 985.608 1187.64 985.594C1186.74 985.581 1186.01 986.333 1186 987.274C1185.99 988.11 1186.54 988.813 1187.29 988.968L1187.57 989L1188.24 988.999L1189.67 988.957C1191.73 988.864 1194.38 988.617 1197.47 988.131C1204.34 987.05 1211.18 985.078 1217.59 981.989L1219.1 981.238C1219.89 980.828 1220.22 979.81 1219.84 978.963Z" fill="#DD936F"/>
    <path d="M1228.84 996.953C1228.47 996.114 1227.54 995.763 1226.77 996.168C1225.11 997.035 1221.21 997.845 1215.9 998.509C1213.18 998.848 1210.27 999.132 1207.36 999.36L1204.54 999.564L1203.48 999.629C1202.62 999.676 1201.96 1000.47 1202 1001.4C1202.05 1002.33 1202.78 1003.05 1203.63 1003L1204.72 1002.93C1205.59 1002.87 1206.55 1002.81 1207.58 1002.72C1210.54 1002.49 1213.49 1002.21 1216.26 1001.86L1218.44 1001.57C1222.99 1000.92 1226.31 1000.15 1228.12 999.206C1228.89 998.8 1229.22 997.792 1228.84 996.953Z" fill="#DD936F"/>
    <path d="M1577.48 885L1577.19 885.013L1294.38 923.814C1293.51 923.934 1292.9 924.741 1293.01 925.617C1293.12 926.396 1293.77 926.967 1294.52 927L1294.81 926.987L1577.62 888.186C1578.49 888.066 1579.1 887.259 1578.99 886.383C1578.88 885.604 1578.23 885.033 1577.48 885Z" fill="#DD936F"/>
    <path d="M1285.2 1245.35C1284.26 1244.72 1282.99 1244.96 1282.36 1245.88C1281.79 1246.71 1281.92 1247.79 1282.61 1248.47L1282.89 1248.7L1357.73 1299.44L1438.93 2184.16C1439.02 2185.17 1439.83 2185.93 1440.81 2186H1441.15C1442.16 2185.91 1442.93 2185.1 1443 2184.12L1443 2183.79L1361.71 1298.12C1361.66 1297.64 1361.45 1297.19 1361.1 1296.86L1360.82 1296.63L1285.2 1245.35Z" fill="#A3B5D6"/>
    <path d="M1455.19 769.595C1454.58 768.24 1452.98 767.63 1451.61 768.232C1450.36 768.784 1449.73 770.163 1450.11 771.433L1450.23 771.776L1486.86 853.405C1487.41 854.649 1488.81 855.265 1490.09 854.892L1490.44 854.765L1606.4 803.368C1607.76 802.763 1608.37 801.175 1607.76 799.822C1607.2 798.581 1605.81 797.968 1604.53 798.341L1604.18 798.467L1490.71 848.762L1455.19 769.595Z" fill="#253368"/>
    <path d="M2007.95 2119.39C2178.59 2119.39 2316.93 1981.64 2316.93 1811.71C2316.93 1641.79 2178.59 1504.03 2007.95 1504.03C1837.3 1504.03 1698.97 1641.79 1698.97 1811.71C1698.97 1981.64 1837.3 2119.39 2007.95 2119.39Z" fill="#FFD666"/>
    <path d="M2006.14 2054.34C2141.7 2054.34 2251.6 1944.9 2251.6 1809.91C2251.6 1674.92 2141.7 1565.48 2006.14 1565.48C1870.57 1565.48 1760.68 1674.92 1760.68 1809.91C1760.68 1944.9 1870.57 2054.34 2006.14 2054.34Z" fill="#FFC53D"/>
    <path d="M1960.13 1658.56C1962.2 1658.56 1964.09 1659.71 1965.02 1661.54L2008.29 1745.97L2051.56 1661.54C2052.47 1659.77 2054.26 1658.64 2056.25 1658.56L2056.45 1658.56H2087.98C2089.89 1658.56 2091.66 1659.55 2092.66 1661.16C2093.66 1662.78 2093.74 1664.8 2092.87 1666.49L2052.08 1746.12L2088.52 1746.12C2092.2 1746.12 2095.19 1749.1 2095.19 1752.77V1783.43C2095.19 1787.1 2092.2 1790.08 2088.52 1790.08L2029.33 1790.08V1833.35L2088.52 1833.35C2092.2 1833.35 2095.19 1836.32 2095.19 1839.99V1870.65C2095.19 1874.32 2092.2 1877.3 2088.52 1877.3L2029.33 1877.3L2029.33 1959.4C2029.33 1962.42 2026.86 1964.86 2023.81 1964.86H1990.7C1987.66 1964.86 1985.19 1962.42 1985.19 1959.4L1985.19 1877.3L1926 1877.3C1922.31 1877.3 1919.32 1874.32 1919.32 1870.65V1839.99C1919.32 1836.32 1922.31 1833.35 1926 1833.35L1985.19 1833.35V1790.08L1926 1790.08C1922.31 1790.08 1919.32 1787.1 1919.32 1783.43V1752.77C1919.32 1749.1 1922.31 1746.12 1926 1746.12L1964.51 1746.12L1923.71 1666.49C1922.85 1664.8 1922.93 1662.78 1923.92 1661.16C1924.92 1659.55 1926.69 1658.56 1928.6 1658.56H1960.13Z" fill="white"/>
    <path fill-rule="evenodd" clip-rule="evenodd" d="M818.517 500.634H47.3584V431.708C47.3584 416.757 59.5112 404.635 74.5003 404.635H791.376C806.366 404.635 818.517 416.757 818.517 431.708V500.634Z" fill="#253368"/>
    <path fill-rule="evenodd" clip-rule="evenodd" d="M791.376 1164.28H74.5003C59.5112 1164.28 47.3584 1152.16 47.3584 1137.2V492.562H818.517V1137.2C818.517 1152.16 806.366 1164.28 791.376 1164.28Z" fill="#E4EBF7"/>
    <path fill-rule="evenodd" clip-rule="evenodd" d="M110.029 449.312C110.029 458.695 102.402 466.303 92.9936 466.303C83.5867 466.303 75.9609 458.695 75.9609 449.312C75.9609 439.928 83.5867 432.321 92.9936 432.321C102.402 432.321 110.029 439.928 110.029 449.312Z" fill="#FF7946"/>
    <path fill-rule="evenodd" clip-rule="evenodd" d="M173.641 449.312C173.641 458.695 166.015 466.303 156.607 466.303C147.2 466.303 139.575 458.695 139.575 449.312C139.575 439.928 147.2 432.321 156.607 432.321C166.015 432.321 173.641 439.928 173.641 449.312Z" fill="#FAAD14"/>
    <path fill-rule="evenodd" clip-rule="evenodd" d="M237.255 449.312C237.255 458.695 229.629 466.303 220.221 466.303C210.814 466.303 203.188 458.695 203.188 449.312C203.188 439.928 210.814 432.321 220.221 432.321C229.629 432.321 237.255 439.928 237.255 449.312Z" fill="#7CB305"/>
    <path fill-rule="evenodd" clip-rule="evenodd" d="M130.708 1072.91C126.029 1072.91 122.238 1069.13 122.238 1064.47V575.102C122.238 570.441 126.029 566.661 130.708 566.661H743.596C748.273 566.661 752.065 570.441 752.065 575.102V1064.47C752.065 1069.13 748.273 1072.91 743.596 1072.91H130.708Z" fill="white"/>
    <path d="M335.094 779.966C338.619 776.962 343.958 777.635 346.628 781.37L346.766 781.57L470.098 965.579L565.497 898.854C566.628 898.064 567.946 897.584 569.319 897.461L569.614 897.44L695.667 890.893C700.01 890.667 703.714 893.989 703.941 898.312C704.163 902.559 700.946 906.192 696.715 906.532L696.487 906.547L572.697 912.976L472.553 983.021C468.999 985.507 464.112 984.654 461.612 981.155L461.475 980.958L338.592 797.62L194.975 920.011C191.733 922.774 186.884 922.456 184.032 919.334L183.872 919.154C181.096 915.927 181.416 911.101 184.552 908.261L184.733 908.103L335.094 779.966Z" fill="#FF7946"/>
    <path d="M676.998 668.915C679.421 665.319 684.312 664.36 687.924 666.771C691.47 669.138 692.464 673.874 690.207 677.448L690.078 677.646L577.933 844.097C575.12 848.272 569.163 848.756 565.704 845.152L565.536 844.971L437.355 703.011L348.503 762.685C347.249 763.527 345.78 763.991 344.272 764.024L343.97 764.025L189.725 761.515C185.377 761.445 181.91 757.879 181.98 753.55C182.05 749.298 185.51 745.892 189.754 745.841L189.983 745.841L341.748 748.31L434.228 686.202C437.417 684.06 441.68 684.53 444.322 687.281L444.488 687.46L570.486 827.003L676.998 668.915Z" fill="#FAAD14"/>
    <path d="M482.721 775.513C484.686 773.803 487.37 773.176 489.885 773.827L490.144 773.899L572.26 798.143L693.29 778.949C697.509 778.279 701.479 781.08 702.266 785.232L702.305 785.456C702.977 789.655 700.164 793.607 695.992 794.39L695.768 794.429L572.975 813.904C571.919 814.072 570.841 814.023 569.806 813.763L569.497 813.678L489.824 790.155L351.383 910.676C348.833 912.896 345.151 913.238 342.239 911.551L342.023 911.421L176.63 808.414C172.944 806.118 171.825 801.281 174.132 797.612C176.396 794.009 181.121 792.87 184.782 795.003L184.984 795.125L345.417 895.044L482.721 775.513Z" fill="#597EF7"/>
    <path fill-rule="evenodd" clip-rule="evenodd" d="M340.717 630.726H185.57C179.217 630.726 174.022 625.543 174.022 619.208C174.022 612.871 179.217 607.689 185.57 607.689H340.717C347.068 607.689 352.265 612.871 352.265 619.208C352.265 625.543 347.068 630.726 340.717 630.726Z" fill="#CCD7EE"/>
    <path fill-rule="evenodd" clip-rule="evenodd" d="M251.015 685.053H193.274C186.897 685.053 181.726 679.895 181.726 673.534C181.726 667.172 186.897 662.015 193.274 662.015H251.015C257.394 662.015 262.563 667.172 262.563 673.534C262.563 679.895 257.394 685.053 251.015 685.053Z" fill="#CCD7EE"/>
    <path d="M669.361 935.705C642.318 935.705 620.458 957.821 620.458 985.029C620.458 1012.24 642.318 1034.35 669.361 1034.35C696.403 1034.35 718.263 1012.24 718.263 985.029C718.263 957.822 696.403 935.705 669.361 935.705ZM669.361 954.259C686.04 954.259 699.622 968.002 699.622 985.029C699.622 1002.06 686.04 1015.8 669.361 1015.8C652.681 1015.8 639.099 1002.06 639.099 985.029C639.099 968.002 652.682 954.259 669.361 954.259Z" fill="#CCD7EE"/>
    <path d="M701.883 959.014C706.616 956.998 712.093 959.183 714.118 963.894C716.839 970.222 718.263 977.112 718.263 984.193C718.263 989.988 717.308 995.66 715.464 1001.01C713.793 1005.86 708.492 1008.44 703.623 1006.78C698.833 1005.14 696.246 1000.01 697.755 995.225L697.832 994.99C699.01 991.573 699.622 987.935 699.622 984.193C699.622 979.816 698.786 975.586 697.193 971.698L696.981 971.193C694.956 966.482 697.151 961.03 701.883 959.014Z" fill="#597EF7"/>
    <path fill-rule="evenodd" clip-rule="evenodd" d="M2306.9 198.448H1940.26C1928.34 198.448 1918.38 207.266 1916.71 219.021C1905.81 295.738 1835.56 335.179 1804.87 348.481C1796.21 352.239 1790.57 360.725 1790.57 370.14V682.322C1790.57 886.618 2123.58 1016.79 2123.58 1016.79C2123.58 1016.79 2456.59 886.618 2456.59 682.322V370.139C2456.59 360.725 2450.96 352.239 2442.29 348.481C2411.6 335.179 2341.35 295.738 2330.45 219.021C2328.78 207.266 2318.83 199.433 2306.9 199.433V198.448Z" fill="#E4EBF7"/>
    <path fill-rule="evenodd" clip-rule="evenodd" d="M2276.08 259.266C2280.6 273.169 2286.65 286.581 2294.18 299.385C2305.27 318.205 2319.61 335.747 2336.82 351.522C2356.12 369.212 2376.51 382.446 2394.24 392.013V680.635C2394.24 758.763 2319.09 827.961 2256.05 872.253C2204.81 908.259 2152.62 934.138 2123.54 947.378C2094.94 934.376 2043.91 909.093 1992.95 873.544C1949.84 843.466 1915.94 812.436 1892.21 781.317C1879.29 764.375 1869.43 747.384 1862.9 730.819C1856.19 713.789 1852.93 697.374 1852.93 680.635V392.013C1870.65 382.446 1891.05 369.211 1910.34 351.522C1927.55 335.747 1941.89 318.206 1952.98 299.385C1960.52 286.582 1966.57 273.169 1971.09 259.266H2276.08Z" fill="#597EF7"/>
    <path fill-rule="evenodd" clip-rule="evenodd" d="M2139.55 421.705L2030.09 587.086C2024.2 596.052 2030.54 607.078 2041.15 607.078H2090.18L2029.9 720.045C2025.4 729.175 2036.99 737.648 2044.1 730.425L2208.06 567.009C2216.42 558.507 2210.49 543.981 2198.65 543.981H2124.5L2155.52 428.884C2157.94 419.088 2145.07 413.301 2139.55 421.705Z" fill="white"/>
    <path fill-rule="evenodd" clip-rule="evenodd" d="M1029.72 1593.99C1053.75 1623.87 1048.91 1667.5 1018.92 1691.43C1005.65 1702.02 989.694 1706.98 973.938 1706.64L973.924 1706.63C812.907 1727.07 786.897 1825.86 782.777 1852.96C782.769 1853.06 782.757 1853.17 782.745 1853.28C782.619 1854.42 782.466 1855.55 782.286 1856.67C782.059 1858.72 782.016 1859.84 782.016 1859.84L781.77 1859.51C774.703 1894.28 742.025 1918.55 705.945 1914.57C667.748 1910.37 640.208 1876.11 644.427 1838.06C648.605 1800.38 682.346 1773.11 720.082 1776.65L721.226 1776.76C847.949 1785.9 894.346 1668.21 906.531 1627.58C908.928 1610.72 917.528 1594.71 931.918 1583.22C961.911 1559.28 1005.7 1564.11 1029.72 1593.99Z" fill="#ADC6FF"/>
    <path fill-rule="evenodd" clip-rule="evenodd" d="M984.132 1567.43C1022.28 1571.64 1049.79 1605.98 1045.57 1644.13C1041.36 1682.28 1007.02 1709.79 968.87 1705.57C930.72 1701.36 903.211 1667.02 907.427 1628.87C911.64 1590.72 945.983 1563.21 984.132 1567.43Z" fill="#ADC6FF"/>
    <path fill-rule="evenodd" clip-rule="evenodd" d="M2195.58 1321.24C2224.76 1313.46 2254.74 1330.44 2263 1359.24L2263.24 1360.11C2293.03 1456.1 2393.91 1456.27 2427.52 1453.53C2456.61 1446.44 2486.21 1463.77 2494 1492.7C2501.9 1522.03 2484.41 1552.18 2454.94 1560.04C2431.03 1566.41 2406.59 1556.16 2393.99 1536.41L2393.84 1536.69C2331.61 1412.68 2246.35 1422.46 2224.41 1427.38L2224.18 1427.45C2223.3 1427.68 2222.43 1427.89 2221.55 1428.08C2219.95 1428.51 2219.1 1428.8 2219.1 1428.8L2219.28 1428.52C2191.42 1433.34 2163.98 1416.28 2156.52 1388.57C2148.63 1359.24 2166.11 1329.1 2195.58 1321.24Z" fill="#ADC6FF"/>
    </svg>
