<svg width="3006" height="3106" viewBox="0 0 3006 3106" fill="none" xmlns="http://www.w3.org/2000/svg">
    <path opacity="0.5" d="M2904.01 2463H101.989C45.6622 2463 0 2504.41 0 2555.5C0 2606.59 45.6622 2648 101.989 2648H2904.01C2960.34 2648 3006 2606.59 3006 2555.5C3006 2504.41 2960.34 2463 2904.01 2463Z" fill="#E4EBF7"/>
    <path fill-rule="evenodd" clip-rule="evenodd" d="M890.393 236.812C683.471 236.812 515.724 389.66 515.724 578.204C515.724 766.748 683.471 919.595 890.393 919.595C1097.31 919.595 1265.06 766.748 1265.06 578.204C1265.06 389.66 1097.31 236.812 890.393 236.812Z" fill="#597EF7"/>
    <mask id="mask0" mask-type="alpha" maskUnits="userSpaceOnUse" x="515" y="238" width="751" height="684">
    <path d="M890.392 238.701C683.47 238.701 515.724 391.549 515.724 580.093C515.724 768.643 683.47 921.484 890.392 921.484C1097.31 921.484 1265.05 768.643 1265.05 580.093" fill="white"/>
    </mask>
    <g mask="url(#mask0)">
    <path fill-rule="evenodd" clip-rule="evenodd" d="M1128.33 886.18C1187.98 886.18 1242.16 865.359 1283.09 831.489C1272.59 763.253 1208.45 670.48 1130.66 670.48C1051.59 670.48 986.511 764.991 977.676 834.89C1018.1 866.765 1070.68 886.18 1128.33 886.18Z" fill="#A8C1EF"/>
    <path fill-rule="evenodd" clip-rule="evenodd" d="M1220.69 599.958C1220.69 645.402 1180.26 682.241 1130.39 682.241C1080.51 682.241 1040.08 645.402 1040.08 599.958C1040.08 554.513 1080.51 517.674 1130.39 517.674C1180.26 517.674 1220.69 554.513 1220.69 599.958Z" fill="#E4EBF7"/>
    <path fill-rule="evenodd" clip-rule="evenodd" d="M489.793 826.849C530.218 858.718 582.793 878.138 640.446 878.138C700.102 878.138 754.279 857.318 795.208 823.448C784.709 755.212 720.57 670.484 642.783 670.484C563.708 670.484 498.629 756.95 489.793 826.849Z" fill="#A8C1EF"/>
    <path fill-rule="evenodd" clip-rule="evenodd" d="M732.805 599.958C732.805 645.402 692.381 682.241 642.508 682.241C592.621 682.241 552.197 645.402 552.197 599.958C552.197 554.513 592.621 517.674 642.508 517.674C692.381 517.674 732.805 554.513 732.805 599.958Z" fill="#E4EBF7"/>
    <path fill-rule="evenodd" clip-rule="evenodd" d="M671.972 858.84C731.379 905.679 808.654 934.211 893.382 934.211C981.043 934.211 1060.67 903.619 1120.82 853.847C1105.4 753.56 1011.13 635.172 896.82 635.172C780.6 635.172 684.949 756.109 671.972 858.84Z" fill="#CCD7EE"/>
    <path fill-rule="evenodd" clip-rule="evenodd" d="M1029.12 550.294C1029.12 617.084 969.699 671.226 896.405 671.226C823.099 671.226 763.679 617.084 763.679 550.294C763.679 483.505 823.099 429.368 896.405 429.368C969.699 429.368 1029.12 483.505 1029.12 550.294Z" fill="white"/>
    </g>
    <path fill-rule="evenodd" clip-rule="evenodd" d="M1570.04 1990.85C1562.65 1871.97 1553.67 1749.14 1544.07 1651.58C1544.07 1651.58 1523.92 1581.71 1453.59 1598.19C1384.65 1614.35 1390.77 1694.38 1390.77 1694.38L1445.1 2007.25C1445.1 2007.25 1454.57 2058.11 1516.87 2048.92C1573.7 2040.54 1570.04 1990.85 1570.04 1990.85Z" fill="#597EF7"/>
    <path fill-rule="evenodd" clip-rule="evenodd" d="M1546.52 2288.6C1521.53 2286.52 1500.94 2306.12 1504.47 2328.67C1508.53 2354.61 1513.81 2389.68 1518.94 2427.51C1524.22 2466.45 1528.67 2498.71 1532.23 2502.52C1547.91 2519.29 1575.78 2523.39 1605.71 2538.62C1629.39 2550.67 1633.98 2557.04 1662.6 2559.09C1703.17 2561.99 1682.83 2548.48 1632.97 2504.32C1588.55 2464.98 1588.81 2444.49 1588.81 2444.49L1581.8 2321.91C1580.79 2304.39 1565.77 2290.2 1546.52 2288.6Z" fill="#C99382"/>
    <path fill-rule="evenodd" clip-rule="evenodd" d="M1627.63 2493.25C1659.77 2519.45 1695.4 2539.18 1696.22 2553.02C1697.04 2566.86 1686.55 2580.46 1635.2 2569.32C1600.06 2561.69 1608.97 2554.16 1574.41 2538.2C1557.15 2530.24 1551.39 2531.83 1535.21 2522.18C1525.51 2513.06 1523.66 2464.34 1523.66 2464.34L1586.92 2515.18C1586.92 2515.18 1569.1 2490.37 1580.53 2483.51C1591.97 2476.65 1602.65 2471.7 1610.34 2475.67C1618.02 2479.64 1627.63 2493.25 1627.63 2493.25Z" fill="#7D4556"/>
    <path fill-rule="evenodd" clip-rule="evenodd" d="M1570.89 2001.32C1582.37 2207.21 1592.99 2422.55 1592.99 2422.55L1511.05 2422.6L1444.05 2015.35C1444.05 2015.35 1442.66 1953.36 1505.51 1948.15C1562.23 1943.45 1570.89 2001.32 1570.89 2001.32Z" fill="#597EF7"/>
    <path fill-rule="evenodd" clip-rule="evenodd" d="M1226.29 2003.19C1230.63 1884.18 1236.45 1761.19 1243.55 1663.46C1243.55 1663.46 1261.9 1593.18 1332.64 1608.17C1401.97 1622.86 1397.9 1703.01 1397.9 1703.01L1351.62 2016.93C1351.62 2016.93 1343.45 2067.98 1280.93 2060.11C1223.9 2052.94 1226.29 2003.19 1226.29 2003.19Z" fill="#597EF7"/>
    <path fill-rule="evenodd" clip-rule="evenodd" d="M1257.44 2300.36C1282.36 2297.75 1303.45 2316.91 1300.51 2339.52C1297.11 2365.54 1292.73 2400.72 1288.58 2438.65C1284.29 2477.69 1280.67 2510.03 1277.2 2513.91C1261.96 2531.01 1234.21 2535.71 1204.68 2551.56C1181.31 2564.1 1176.88 2570.57 1148.32 2573.22C1107.84 2576.98 1127.83 2563.04 1176.54 2517.85C1219.94 2477.58 1219.14 2457.1 1219.14 2457.1L1223.02 2334.4C1223.58 2316.87 1238.24 2302.36 1257.44 2300.36Z" fill="#C99382"/>
    <path fill-rule="evenodd" clip-rule="evenodd" d="M1181.59 2506.67C1150.13 2533.54 1115.02 2554.01 1114.56 2567.87C1114.09 2581.72 1124.93 2595.09 1175.98 2582.87C1210.92 2574.5 1201.81 2567.16 1235.95 2550.48C1253 2542.15 1258.8 2543.63 1274.73 2533.64C1284.2 2524.31 1284.8 2475.56 1284.8 2475.56L1222.86 2527.72C1222.86 2527.72 1240.03 2502.54 1228.43 2495.93C1216.82 2489.32 1206.02 2484.59 1198.43 2488.73C1190.86 2492.85 1181.59 2506.67 1181.59 2506.67Z" fill="#7D4556"/>
    <path fill-rule="evenodd" clip-rule="evenodd" d="M1225.71 2013.67C1219.51 2219.74 1214.41 2435.25 1214.41 2435.25L1296.32 2433.56L1352.87 2025.02C1352.87 2025.02 1352.68 1963.01 1289.7 1959.13C1232.88 1955.63 1225.71 2013.67 1225.71 2013.67Z" fill="#597EF7"/>
    <path fill-rule="evenodd" clip-rule="evenodd" d="M1449.69 1127.5L1446.12 1059.54L1346.81 1059.59L1344.38 1127.98C1343.29 1154.44 1366.47 1176.52 1395.64 1176.8C1396.2 1176.81 1396.76 1176.82 1397.31 1176.82C1427.15 1177.13 1451.11 1154.55 1449.69 1127.5Z" fill="#C99382"/>
    <path fill-rule="evenodd" clip-rule="evenodd" d="M1467.17 1144.26L1460.83 1127.68L1337.6 1130.73L1332.65 1146.43C1332.65 1146.43 1261.24 1132.29 1226.15 1182.34C1204.11 1213.79 1255.63 1402.79 1256.5 1444.98C1235.53 1495.39 1266 1510.75 1266 1510.75L1515.93 1508.03C1515.93 1508.03 1544.54 1490.83 1520.05 1456.19C1530.08 1394.24 1581.43 1228.18 1564.86 1197.61C1531.93 1136.84 1467.17 1144.26 1467.17 1144.26Z" fill="#ADC6FF"/>
    <path d="M1457.62 1146.44C1458.65 1146.35 1459.57 1147.04 1459.67 1147.97C1459.77 1148.91 1459.01 1149.75 1457.98 1149.83C1449.75 1150.54 1440.94 1151.14 1431.63 1151.63C1403.24 1153.14 1373.5 1153.57 1347.48 1153.39L1337.83 1153.28C1336.79 1153.26 1335.97 1152.48 1335.99 1151.54C1336.01 1150.6 1336.87 1149.85 1337.91 1149.87L1343.22 1149.94C1370.16 1150.21 1401.54 1149.81 1431.41 1148.23C1440.68 1147.74 1449.44 1147.14 1457.62 1146.44Z" fill="#597EF7"/>
    <path fill-rule="evenodd" clip-rule="evenodd" d="M1546.07 1669.66C1538.07 1592.8 1525.64 1556.96 1516.14 1542.52C1312.04 1547.81 1261.2 1545.38 1261.2 1545.38C1261.2 1545.38 1243.73 1590.23 1241.22 1680.47C1241.22 1680.47 1312.55 1760.19 1393.64 1760.19C1466.75 1760.19 1546.07 1669.66 1546.07 1669.66Z" fill="#597EF7"/>
    <path fill-rule="evenodd" clip-rule="evenodd" d="M1516.14 1542.52L1512.28 1507.66L1262.36 1510.38L1261.2 1545.29C1261.2 1545.29 1393.47 1549.91 1516.14 1542.52Z" fill="#597EF7"/>
    <path d="M1372.04 1547.72C1373.1 1547.74 1373.95 1548.53 1373.92 1549.5L1373.75 1559.12C1373.72 1561.05 1373.69 1563.11 1373.66 1565.27C1373.23 1597.82 1373.27 1632.83 1374.11 1665.69L1374.24 1670.46C1375.29 1707.57 1377.31 1737.15 1380.49 1756.51C1380.64 1757.46 1379.92 1758.35 1378.87 1758.49C1377.82 1758.64 1376.84 1757.98 1376.68 1757.03L1376.28 1754.48C1373.17 1734.08 1371.23 1703.64 1370.27 1665.77C1369.49 1635.61 1369.4 1603.65 1369.72 1573.43L1369.95 1556.25L1370.08 1549.43C1370.1 1548.46 1370.98 1547.7 1372.04 1547.72Z" fill="#253368"/>
    <path d="M1407.72 1548.46C1408.78 1548.46 1409.64 1549.25 1409.63 1550.21L1409.63 1561.24C1409.65 1566.47 1409.69 1572.41 1409.77 1578.88C1409.94 1593.86 1410.25 1608.68 1410.74 1622.7L1410.91 1627.34C1411.75 1649.37 1412.98 1667.65 1414.65 1680.9L1414.83 1682.25L1414.83 1682.6C1413.73 1695.34 1405.87 1703.12 1393.67 1706.78C1386.96 1708.79 1379.97 1709.31 1374.01 1709L1373.08 1708.94C1373.01 1708.94 1372.94 1708.93 1372.89 1708.93C1371.83 1708.83 1371.07 1707.97 1371.17 1707.01C1371.28 1706.05 1372.23 1705.36 1373.28 1705.46L1374.22 1705.52C1379.75 1705.8 1386.28 1705.32 1392.46 1703.47C1402.97 1700.31 1409.63 1693.94 1410.9 1683.3L1410.98 1682.48L1410.83 1681.3C1409.38 1669.78 1408.26 1654.55 1407.44 1636.4L1407.07 1627.46C1406.54 1613.6 1406.19 1598.87 1405.99 1583.91L1405.87 1573.23C1405.82 1568.31 1405.8 1563.77 1405.78 1559.7L1405.79 1550.2C1405.79 1549.23 1406.66 1548.46 1407.72 1548.46Z" fill="#253368"/>
    <path d="M1493.81 1549.19C1494.87 1549.18 1495.74 1549.95 1495.76 1550.91L1495.82 1552.57C1495.84 1552.87 1495.86 1553.2 1495.88 1553.57C1496.01 1555.71 1496.23 1558.09 1496.54 1560.67C1497.43 1568.01 1498.93 1575.35 1501.18 1582.18C1506.34 1597.84 1514.58 1608.37 1526.39 1611.61C1527.41 1611.89 1527.98 1612.87 1527.67 1613.79C1527.36 1614.71 1526.29 1615.23 1525.27 1614.95C1511.95 1611.29 1502.99 1599.84 1497.5 1583.18C1495.18 1576.12 1493.63 1568.59 1492.72 1561.05C1492.46 1558.94 1492.27 1556.95 1492.13 1555.11L1491.96 1552.27C1491.93 1551.7 1491.92 1551.26 1491.91 1550.97C1491.9 1550 1492.74 1549.21 1493.81 1549.19Z" fill="#253368"/>
    <path d="M1283.55 1553.23C1284.5 1553.22 1285.3 1553.85 1285.46 1554.68L1285.48 1555.02L1285.47 1556.82C1285.43 1559.04 1285.31 1561.96 1285.05 1565.39C1284.5 1572.59 1283.5 1579.75 1281.94 1586.46C1277.84 1604.04 1270.6 1615.68 1259.09 1618.39C1258.06 1618.63 1257.01 1618.07 1256.75 1617.14C1256.48 1616.2 1257.1 1615.25 1258.13 1615.01C1267.75 1612.74 1274.36 1602.13 1278.18 1585.73C1279.7 1579.21 1280.68 1572.2 1281.21 1565.15L1281.35 1563.2C1281.53 1560.36 1281.62 1557.96 1281.64 1556.15L1281.64 1554.99C1281.63 1554.02 1282.49 1553.24 1283.55 1553.23Z" fill="#253368"/>
    <path d="M1327.47 1743.18C1327.95 1742.32 1329.1 1741.97 1330.05 1742.4L1331.6 1743.08L1333.23 1743.76C1334.09 1744.12 1335.01 1744.5 1336 1744.89C1340.72 1746.78 1345.91 1748.66 1351.39 1750.41C1361.92 1753.79 1372.25 1756.28 1381.89 1757.53C1390.54 1758.65 1398.33 1758.73 1405.06 1757.62C1406.1 1757.45 1407.1 1758.07 1407.29 1759.02C1407.48 1759.97 1406.79 1760.88 1405.75 1761.05C1398.57 1762.24 1390.37 1762.16 1381.35 1760.99C1371.43 1759.7 1360.86 1757.15 1350.11 1753.7C1345.33 1752.17 1340.77 1750.55 1336.55 1748.91L1334.46 1748.09C1333.45 1747.69 1332.5 1747.3 1331.62 1746.94L1329.13 1745.88C1328.77 1745.72 1328.51 1745.6 1328.33 1745.52C1327.38 1745.09 1327 1744.04 1327.47 1743.18Z" fill="#253368"/>
    <path fill-rule="evenodd" clip-rule="evenodd" d="M1487.02 996.04C1487.02 996.04 1512.39 969.837 1527.11 994.62C1541.1 1018.16 1512.29 1050.3 1487.87 1043.84C1477.2 1021.79 1487.02 996.04 1487.02 996.04Z" fill="#C99382"/>
    <path fill-rule="evenodd" clip-rule="evenodd" d="M1310.24 996.04C1310.24 996.04 1284.88 969.837 1270.15 994.62C1256.17 1018.16 1284.97 1050.3 1309.39 1043.84C1320.07 1021.79 1310.24 996.04 1310.24 996.04Z" fill="#C99382"/>
    <path fill-rule="evenodd" clip-rule="evenodd" d="M1497.43 1001.6C1497.43 1083 1452.88 1104.52 1397.92 1104.52C1342.97 1104.52 1302.19 1083.85 1298.43 1001.6C1294.96 925.924 1342.97 900.518 1397.92 900.518C1452.88 900.518 1497.43 930.128 1497.43 1001.6Z" fill="#C99382"/>
    <path fill-rule="evenodd" clip-rule="evenodd" d="M1405.87 1010.56C1406.09 1027 1420.95 1040.17 1439.06 1039.97C1457.17 1039.77 1471.68 1026.28 1471.46 1009.85C1471.24 993.407 1456.38 980.24 1438.27 980.436C1420.16 980.636 1405.65 994.122 1405.87 1010.56Z" fill="white"/>
    <path d="M1438.25 978.338C1418.86 978.553 1403.33 992.991 1403.56 1010.59C1403.79 1028.18 1419.7 1042.28 1439.09 1042.07C1458.47 1041.85 1474.01 1027.41 1473.77 1009.82C1473.54 992.226 1457.63 978.129 1438.25 978.338ZM1438.3 982.533C1455.13 982.351 1468.95 994.592 1469.15 1009.87C1469.35 1025.15 1455.87 1037.69 1439.03 1037.87C1422.2 1038.05 1408.38 1025.81 1408.18 1010.53C1407.98 995.525 1421 983.16 1437.42 982.554L1438.3 982.533Z" fill="#7D4556"/>
    <path d="M1430.65 1012C1430.51 1013.02 1429.55 1013.82 1428.39 1013.84C1427.22 1013.85 1426.24 1013.07 1426.07 1012.05L1426.05 1011.76C1426.04 1010.05 1426.39 1007.72 1427.47 1005.36C1429.39 1001.21 1433.06 998.574 1438.59 998.514C1444.08 998.454 1447.95 1000.81 1450.27 1004.65C1451.6 1006.85 1452.17 1009 1452.32 1010.53C1452.44 1011.68 1451.5 1012.7 1450.23 1012.81C1448.96 1012.91 1447.83 1012.06 1447.72 1010.9L1447.67 1010.53C1447.62 1010.3 1447.56 1009.99 1447.46 1009.63C1447.19 1008.62 1446.78 1007.6 1446.22 1006.67C1444.67 1004.11 1442.3 1002.67 1438.65 1002.71C1435.11 1002.75 1432.99 1004.27 1431.74 1006.99C1431.27 1007.99 1430.97 1009.09 1430.8 1010.2C1430.74 1010.61 1430.7 1010.97 1430.68 1011.25L1430.65 1012Z" fill="#7D4556"/>
    <path d="M1332.73 971.148C1342.87 965.323 1357.94 965.323 1378.49 974.65C1379.64 975.168 1380.1 976.427 1379.53 977.464C1378.96 978.5 1377.57 978.92 1376.43 978.402C1357.25 969.701 1343.89 969.701 1335.21 974.692C1333.99 975.392 1332.99 976.135 1332.19 976.869L1331.74 977.308C1331.62 977.433 1331.52 977.536 1331.46 977.614L1331.38 977.71C1330.66 978.666 1329.22 978.911 1328.17 978.257C1327.12 977.602 1326.85 976.297 1327.57 975.341C1328.41 974.218 1330.1 972.664 1332.73 971.148Z" fill="#7D4556"/>
    <path d="M1442.72 966.554C1449.08 966.246 1454.74 967.171 1459.5 969.569C1460.62 970.131 1461.02 971.408 1460.4 972.421C1459.78 973.434 1458.37 973.799 1457.26 973.236C1453.34 971.261 1448.52 970.474 1442.97 970.743C1437.23 971.02 1431.03 972.398 1424.76 974.524C1422.77 975.2 1420.89 975.915 1419.14 976.638L1417.86 977.18C1416.61 977.719 1415.73 978.134 1415.27 978.362C1414.15 978.922 1412.75 978.553 1412.13 977.539C1411.52 976.524 1411.92 975.249 1413.04 974.689L1413.96 974.248C1414.47 974.011 1415.11 973.722 1415.87 973.393C1418.08 972.438 1420.52 971.485 1423.14 970.595C1429.81 968.331 1436.45 966.857 1442.72 966.554Z" fill="#7D4556"/>
    <path d="M1384.13 984.399C1385.06 983.972 1386.19 984.306 1386.66 985.146L1387.08 985.933C1387.25 986.269 1387.45 986.675 1387.68 987.149C1388.42 988.713 1389.17 990.463 1389.86 992.358C1392.14 998.571 1393.36 1004.86 1392.98 1010.79C1392.74 1014.4 1392.02 1017.7 1390.68 1021.94L1388.72 1027.99C1387.38 1032.3 1387.36 1033.15 1387.84 1034.73C1388.58 1037.19 1391.86 1038.76 1399.54 1039.52C1400.57 1039.62 1401.32 1040.47 1401.21 1041.4C1401.09 1042.34 1400.17 1043.02 1399.13 1042.91C1390.09 1042.02 1385.47 1039.81 1384.21 1035.63L1383.99 1034.84C1383.43 1032.67 1383.7 1031.34 1385.84 1024.76L1386.66 1022.26C1388.19 1017.61 1388.99 1014.25 1389.23 1010.59C1389.58 1005.15 1388.43 999.271 1386.29 993.434C1385.77 991.997 1385.21 990.649 1384.65 989.41L1384.23 988.503C1383.81 987.624 1383.49 987.007 1383.31 986.693C1382.84 985.853 1383.21 984.826 1384.13 984.399Z" fill="#9B6160"/>
    <path d="M1419.94 1047.1C1420.99 1046.85 1422.07 1047.43 1422.35 1048.39C1422.62 1049.35 1421.99 1050.32 1420.93 1050.57C1406.52 1053.97 1391.57 1053.97 1377.76 1051.94C1376.15 1051.7 1374.67 1051.45 1373.33 1051.19L1371.49 1050.82C1370.98 1050.72 1370.6 1050.63 1370.35 1050.57C1369.3 1050.31 1368.68 1049.32 1368.97 1048.37C1369.25 1047.41 1370.34 1046.85 1371.39 1047.11L1373.21 1047.5C1374.72 1047.81 1376.45 1048.11 1378.39 1048.4C1391.7 1050.35 1406.13 1050.35 1419.94 1047.1Z" fill="#7D4556"/>
    <path fill-rule="evenodd" clip-rule="evenodd" d="M1323.07 1010.56C1323.29 1027 1338.15 1040.17 1356.26 1039.97C1374.37 1039.77 1388.88 1026.28 1388.66 1009.85C1388.44 993.407 1373.58 980.24 1355.47 980.436C1337.36 980.636 1322.86 994.122 1323.07 1010.56Z" fill="white"/>
    <path d="M1355.44 978.338C1336.06 978.553 1320.53 992.989 1320.76 1010.58C1320.99 1028.18 1336.9 1042.28 1356.29 1042.07C1375.67 1041.85 1391.2 1027.42 1390.97 1009.82C1390.74 992.223 1374.83 978.129 1355.44 978.338ZM1355.5 982.533C1372.33 982.351 1386.15 994.59 1386.35 1009.87C1386.55 1025.15 1373.07 1037.69 1356.23 1037.87C1339.4 1038.05 1325.58 1025.81 1325.38 1010.53C1325.18 995.523 1338.2 983.16 1354.62 982.554L1355.5 982.533Z" fill="#7D4556"/>
    <path d="M1347.85 1012C1347.71 1013.02 1346.76 1013.82 1345.59 1013.84C1344.42 1013.85 1343.44 1013.07 1343.27 1012.05L1343.25 1011.76C1343.24 1010.05 1343.59 1007.72 1344.67 1005.36C1346.59 1001.21 1350.26 998.574 1355.79 998.514C1361.27 998.454 1365.15 1000.81 1367.47 1004.65C1368.8 1006.85 1369.37 1009 1369.52 1010.53C1369.63 1011.68 1368.7 1012.7 1367.42 1012.81C1366.15 1012.91 1365.03 1012.06 1364.92 1010.9L1364.86 1010.53C1364.82 1010.3 1364.75 1009.99 1364.66 1009.63C1364.39 1008.62 1363.98 1007.6 1363.42 1006.67C1361.87 1004.11 1359.5 1002.67 1355.84 1002.71C1352.31 1002.75 1350.19 1004.27 1348.94 1006.99C1348.47 1007.99 1348.17 1009.09 1348 1010.2L1347.91 1010.94C1347.89 1011.16 1347.88 1011.35 1347.87 1011.51L1347.87 1011.72L1347.85 1012Z" fill="#7D4556"/>
    <path d="M1390.58 997.803C1395.31 996.428 1400.34 996.248 1405.12 998.078C1405.55 998.242 1405.98 998.422 1406.39 998.617L1407.01 998.922L1404.74 1002.57C1404.28 1002.34 1403.81 1002.13 1403.33 1001.94C1399.71 1000.56 1395.76 1000.7 1391.99 1001.8C1391.08 1002.06 1390.39 1002.32 1389.96 1002.5L1389.74 1002.6L1387.59 998.891C1388.19 998.601 1389.22 998.198 1390.58 997.803Z" fill="#7D4556"/>
    <path d="M1446.84 1095.23C1447.8 1094.87 1448.9 1095.29 1449.29 1096.17C1449.68 1097.04 1449.22 1098.03 1448.26 1098.39C1415.36 1110.59 1381.68 1108.76 1351.98 1099.49C1351 1099.18 1350.48 1098.21 1350.82 1097.32C1351.15 1096.43 1352.22 1095.96 1353.21 1096.26C1382.11 1105.29 1414.91 1107.07 1446.84 1095.23Z" fill="#9B6160"/>
    <path d="M1404.28 1063.85C1405.31 1063.85 1406.16 1064.62 1406.16 1065.56C1406.16 1066.41 1405.47 1067.11 1404.58 1067.24L1404.28 1067.26H1389.45C1388.42 1067.26 1387.57 1066.5 1387.57 1065.56C1387.57 1064.71 1388.26 1064.01 1389.15 1063.87L1389.45 1063.85H1404.28Z" fill="#9B6160"/>
    <path d="M1395.81 1082.43C1396.74 1082.43 1397.52 1083.05 1397.67 1083.86L1397.69 1084.13V1102.71C1397.69 1103.65 1396.85 1104.42 1395.81 1104.42C1394.88 1104.42 1394.1 1103.8 1393.95 1102.99L1393.93 1102.71V1084.13C1393.93 1083.19 1394.77 1082.43 1395.81 1082.43Z" fill="#9B6160"/>
    <path d="M1404.02 1087.57C1404.95 1087.45 1405.81 1087.97 1406.07 1088.76L1406.14 1089.03L1408.26 1103.12C1408.4 1104.05 1407.68 1104.91 1406.65 1105.04C1405.72 1105.15 1404.86 1104.64 1404.6 1103.85L1404.53 1103.58L1402.41 1089.49C1402.27 1088.55 1403 1087.69 1404.02 1087.57Z" fill="#9B6160"/>
    <path d="M1384.5 1092.03L1384.8 1092.05C1385.73 1092.18 1386.39 1092.9 1386.4 1093.72L1386.37 1094L1384.97 1102.33C1384.81 1103.26 1383.85 1103.9 1382.82 1103.75C1381.9 1103.62 1381.24 1102.91 1381.23 1102.08L1381.25 1101.81L1382.66 1093.48C1382.8 1092.64 1383.59 1092.04 1384.5 1092.03Z" fill="#9B6160"/>
    <path d="M1411.55 1090.81C1412.46 1090.59 1413.38 1091.01 1413.75 1091.76L1413.85 1092.02L1416.68 1101.63C1416.94 1102.54 1416.35 1103.47 1415.34 1103.72C1414.44 1103.93 1413.52 1103.52 1413.15 1102.77L1413.04 1102.51L1410.22 1092.9C1409.95 1091.99 1410.55 1091.05 1411.55 1090.81Z" fill="#9B6160"/>
    <path d="M1274.74 1001.83C1278.89 997.362 1284.38 997.362 1289.56 1004.66C1291.68 1009.06 1291.49 1011.99 1289.65 1016.08L1288.6 1018.3C1287.49 1020.81 1287.57 1022.4 1289.4 1024.9C1289.94 1025.64 1290.57 1026.23 1291.26 1026.7C1292.51 1027.56 1293.76 1027.9 1294.6 1027.97L1294.89 1027.98C1295.93 1027.98 1296.77 1028.75 1296.77 1029.69C1296.77 1030.63 1295.93 1031.4 1294.89 1031.4C1293.33 1031.4 1291.16 1030.9 1289 1029.43C1287.97 1028.73 1287.05 1027.86 1286.27 1026.79C1283.85 1023.49 1283.6 1020.85 1284.86 1017.64L1285.29 1016.63C1285.37 1016.47 1285.5 1016.19 1285.86 1015.45C1287.63 1011.75 1287.87 1009.67 1286.26 1006.27C1282.67 1001.24 1280.21 1001.24 1277.62 1004.03C1276.89 1004.8 1276.38 1005.59 1276.13 1006.08C1275.69 1006.93 1274.57 1007.29 1273.63 1006.89C1272.69 1006.49 1272.28 1005.47 1272.73 1004.62C1273.1 1003.89 1273.78 1002.87 1274.74 1001.83Z" fill="#9B6160"/>
    <path d="M1504.39 1004.42C1509.42 997.362 1514.91 997.362 1519.06 1001.83C1520.03 1002.87 1520.7 1003.89 1521.08 1004.62C1521.52 1005.47 1521.11 1006.49 1520.18 1006.89C1519.24 1007.29 1518.12 1006.93 1517.67 1006.07C1517.42 1005.59 1516.91 1004.8 1516.19 1004.03C1513.59 1001.24 1511.14 1001.24 1507.69 1006.03C1506.04 1009.44 1506.15 1011.49 1507.63 1014.77L1508.69 1017.03C1510.23 1020.52 1510.11 1023.29 1507.53 1026.79C1506.75 1027.86 1505.83 1028.74 1504.79 1029.44C1502.64 1030.91 1500.47 1031.4 1498.91 1031.4C1497.87 1031.4 1497.03 1030.63 1497.03 1029.69C1497.03 1028.84 1497.71 1028.14 1498.61 1028.01L1498.91 1027.98C1499.73 1027.98 1501.13 1027.67 1502.54 1026.71C1503.23 1026.24 1503.86 1025.64 1504.4 1024.9C1506.11 1022.57 1506.29 1021.02 1505.41 1018.79L1504.87 1017.58C1504.79 1017.41 1504.67 1017.16 1504.5 1016.81C1502.35 1012.32 1502 1009.31 1504.39 1004.42Z" fill="#9B6160"/>
    <path fill-rule="evenodd" clip-rule="evenodd" d="M1294.66 1014.96C1294.66 1014.96 1279.61 1000.44 1287.13 982.503C1273.96 961.151 1282.43 940.654 1294.66 932.969C1290.9 914.183 1305.01 880.874 1334.18 877.457C1351.35 883.65 1371.82 884.291 1371.82 884.291C1371.82 884.291 1420.74 858.671 1454.62 889.414C1489.43 885.997 1507.31 921.868 1504.48 934.676C1523.3 956.028 1508.25 988.482 1508.25 988.482C1508.25 988.482 1506.15 1001.03 1499.78 1018.37C1493.19 1036.31 1490.37 1013.25 1490.37 1008.13C1490.37 1003 1476.26 998.732 1480.96 975.674C1464.97 965.423 1468.5 949.626 1468.5 949.626C1468.5 949.626 1456.97 960.3 1424.04 945.782C1400.51 963.717 1364.76 945.782 1364.76 945.782C1364.76 945.782 1335.82 958.375 1318.89 948.985C1318.89 948.985 1323.59 961.792 1310.42 979.728C1315.13 996.808 1301.24 1004.71 1305.01 1014.96C1308.77 1025.2 1298.42 1035.45 1294.66 1014.96Z" fill="#7D4556"/>
    <path fill-rule="evenodd" clip-rule="evenodd" d="M1242.18 1294.43C1242.18 1294.43 1285.98 1344.19 1335.52 1307C1386.05 1269.08 1339.56 1220.3 1339.56 1220.3C1339.56 1220.3 1309.59 1185.17 1271.82 1143.7C1242.3 1111.3 1219.79 1086.34 1198.73 1067.24C1176 1046.63 1140.46 1042.82 1117.26 1060.23C1081.99 1086.7 1085.12 1117.05 1104.35 1140.22C1123.05 1162.76 1149.31 1192.46 1170.53 1216.88C1211.33 1263.84 1242.18 1294.43 1242.18 1294.43Z" fill="#ADC6FF"/>
    <path fill-rule="evenodd" clip-rule="evenodd" d="M994.075 823.556C994.075 823.556 1006.94 877.694 1034.85 883.673C1060.12 889.087 1072.09 860.751 1072.09 860.751C1072.09 860.751 1078.68 837.633 1078.31 810.994C1078.07 793.541 1083.07 760.296 1073.19 758.007C1060.31 755.022 1061.32 789.769 1052.47 793.318C1034.55 800.502 1026.62 745.986 1020.11 737.774C1007.38 721.718 978.094 758.721 994.075 823.556Z" fill="#C99382"/>
    <path d="M1010.31 738.881C1011.34 738.912 1012.16 739.701 1012.12 740.642C1011.7 752.163 1014.13 764.326 1018.45 776.29C1019.85 780.161 1021.34 783.727 1022.84 786.902L1023.59 788.467L1024.74 790.714C1024.77 790.761 1024.79 790.801 1024.81 790.835C1025.27 791.676 1024.9 792.702 1023.97 793.126C1023.05 793.55 1021.92 793.212 1021.45 792.371L1020.87 791.277L1020.16 789.861C1019.91 789.355 1019.65 788.815 1019.38 788.243C1017.84 784.98 1016.31 781.322 1014.88 777.352C1010.44 765.039 1007.93 752.5 1008.37 740.529C1008.4 739.588 1009.27 738.85 1010.31 738.881Z" fill="#9B6160"/>
    <path d="M998.899 747.854C999.934 747.927 1000.71 748.747 1000.63 749.687L1000.59 750.4C1000.41 754.402 1000.68 760.032 1001.75 767.012C1003.35 777.512 1006.48 788.808 1011.49 800.623C1011.86 801.503 1011.38 802.49 1010.41 802.828C1009.44 803.167 1008.35 802.728 1007.98 801.848C1002.86 789.783 999.667 778.233 998.021 767.481C996.995 760.772 996.686 755.245 996.8 751.125L996.857 749.749C996.865 749.609 996.873 749.5 996.88 749.423C996.96 748.484 997.864 747.781 998.899 747.854Z" fill="#9B6160"/>
    <path d="M990.781 773.367C991.812 773.26 992.744 773.932 992.862 774.868C993.839 782.629 995.168 789.662 996.761 795.971C998.001 800.879 999.326 805.067 1000.65 808.54L1001.18 809.904C1001.36 810.33 1001.52 810.728 1001.68 811.098L1002.31 812.497C1002.34 812.541 1002.35 812.578 1002.37 812.608C1002.81 813.463 1002.4 814.478 1001.45 814.874C1000.51 815.27 999.394 814.898 998.958 814.043L998.568 813.221L998.428 812.91C998.024 812.003 997.576 810.918 997.095 809.654C995.729 806.067 994.366 801.761 993.097 796.733C991.473 790.301 990.12 783.143 989.127 775.255C989.009 774.319 989.749 773.474 990.781 773.367Z" fill="#9B6160"/>
    <path fill-rule="evenodd" clip-rule="evenodd" d="M1202.37 1070.94C1202.37 1070.94 1226.02 1132.68 1169.82 1152.31C1111.86 1172.54 1086.15 1114.26 1086.15 1114.26C1086.15 1114.26 1069.18 1072.85 1048.01 1021.89C1035.09 990.783 1021.58 956.168 1015.74 929.765C1009.41 901.174 1024.75 892.757 1052.85 882.948C1086.22 871.296 1101.32 869.562 1116.89 894.9C1131.74 919.059 1146.92 953.683 1160.04 980.036C1185.02 1030.27 1202.37 1070.94 1202.37 1070.94Z" fill="#ADC6FF"/>
    <path fill-rule="evenodd" clip-rule="evenodd" d="M1012.67 874.104L1077.65 851.414L1099.22 889.632L1024.88 915.593L1012.67 874.104Z" fill="#ADC6FF"/>
    <path fill-rule="evenodd" clip-rule="evenodd" d="M1570.41 1294.43C1570.41 1294.43 1526.61 1344.19 1477.07 1307C1426.55 1269.08 1473.03 1220.3 1473.03 1220.3C1473.03 1220.3 1503 1185.17 1540.77 1143.7C1570.29 1111.3 1592.8 1086.34 1613.86 1067.24C1636.59 1046.63 1672.13 1042.82 1695.33 1060.23C1730.6 1086.7 1727.47 1117.05 1708.24 1140.22C1689.55 1162.76 1663.28 1192.46 1642.07 1216.88C1601.26 1263.84 1570.41 1294.43 1570.41 1294.43Z" fill="#ADC6FF"/>
    <path fill-rule="evenodd" clip-rule="evenodd" d="M1818.52 823.556C1818.52 823.556 1805.66 877.694 1777.75 883.673C1752.47 889.087 1740.5 860.751 1740.5 860.751C1740.5 860.751 1733.91 837.633 1734.28 810.994C1734.52 793.541 1729.53 760.296 1739.41 758.007C1752.28 755.022 1751.28 789.769 1760.13 793.318C1778.05 800.502 1785.97 745.986 1792.49 737.774C1805.22 721.718 1834.5 758.721 1818.52 823.556Z" fill="#C99382"/>
    <path d="M1802.29 738.881C1803.33 738.85 1804.19 739.588 1804.23 740.529C1804.67 752.5 1802.16 765.039 1797.72 777.352C1796.29 781.322 1794.75 784.98 1793.22 788.243L1792.44 789.861L1791.73 791.277C1791.45 791.806 1791.25 792.174 1791.15 792.371C1790.68 793.212 1789.55 793.55 1788.62 793.126C1787.69 792.702 1787.32 791.676 1787.79 790.835L1788.18 790.11L1788.32 789.83C1788.75 788.99 1789.24 788.011 1789.76 786.902C1791.25 783.727 1792.75 780.161 1794.15 776.29C1798.46 764.326 1800.89 752.163 1800.47 740.642C1800.44 739.701 1801.25 738.912 1802.29 738.881Z" fill="#9B6160"/>
    <path d="M1813.7 747.854C1814.73 747.781 1815.63 748.484 1815.71 749.423L1815.76 750.264C1815.95 754.461 1815.67 760.293 1814.57 767.481C1812.93 778.233 1809.73 789.783 1804.62 801.848C1804.24 802.728 1803.16 803.167 1802.19 802.828C1801.22 802.49 1800.74 801.503 1801.11 800.623C1806.11 788.808 1809.24 777.512 1810.85 767.012C1811.85 760.497 1812.14 755.158 1812.04 751.222L1812.01 750.4C1811.99 750.037 1811.98 749.798 1811.97 749.687C1811.89 748.747 1812.66 747.927 1813.7 747.854Z" fill="#9B6160"/>
    <path d="M1821.81 773.367C1822.84 773.473 1823.59 774.319 1823.47 775.255C1822.47 783.143 1821.12 790.301 1819.5 796.733C1818.37 801.203 1817.17 805.101 1815.95 808.432L1815.5 809.654C1815.11 810.665 1814.75 811.561 1814.41 812.344L1813.9 813.49C1813.79 813.738 1813.7 813.922 1813.64 814.043C1813.2 814.898 1812.08 815.27 1811.14 814.874C1810.2 814.478 1809.79 813.463 1810.22 812.608L1810.55 811.911L1810.68 811.631C1811.06 810.778 1811.49 809.748 1811.95 808.54C1813.27 805.067 1814.59 800.879 1815.83 795.971C1817.43 789.662 1818.75 782.629 1819.73 774.868C1819.84 774.025 1820.6 773.397 1821.51 773.357L1821.81 773.367Z" fill="#9B6160"/>
    <path fill-rule="evenodd" clip-rule="evenodd" d="M1610.22 1070.94C1610.22 1070.94 1586.57 1132.68 1642.77 1152.31C1700.73 1172.54 1726.44 1114.26 1726.44 1114.26C1726.44 1114.26 1743.42 1072.85 1764.59 1021.89C1777.51 990.783 1791.02 956.168 1796.86 929.765C1803.18 901.174 1787.84 892.757 1759.74 882.948C1726.37 871.296 1711.27 869.562 1695.7 894.9C1680.85 919.059 1665.67 953.683 1652.56 980.036C1627.57 1030.27 1610.22 1070.94 1610.22 1070.94Z" fill="#ADC6FF"/>
    <path fill-rule="evenodd" clip-rule="evenodd" d="M1799.93 874.104L1734.94 851.414L1713.37 889.632L1787.71 915.593L1799.93 874.104Z" fill="#ADC6FF"/>
    <path d="M1514.38 1510.45C1515.44 1510.45 1516.3 1511.23 1516.3 1512.2C1516.3 1513.07 1515.61 1513.79 1514.69 1513.92L1514.38 1513.94H1263.75C1262.68 1513.94 1261.82 1513.16 1261.82 1512.2C1261.82 1511.33 1262.52 1510.61 1263.43 1510.48L1263.75 1510.45H1514.38Z" fill="#253368"/>
    <path d="M1514.38 1542.3C1515.44 1542.3 1516.3 1543.08 1516.3 1544.05C1516.3 1544.91 1515.61 1545.63 1514.69 1545.77L1514.38 1545.79H1258.73C1257.67 1545.79 1256.81 1545.01 1256.81 1544.05C1256.81 1543.18 1257.51 1542.46 1258.42 1542.32L1258.73 1542.3H1514.38Z" fill="#253368"/>
    <path d="M749.32 1063.2C749.32 1064.49 750.418 1065.53 751.772 1065.53C753.127 1065.53 754.225 1064.49 754.225 1063.2V1032.04C754.225 1030.75 753.127 1029.71 751.772 1029.71C750.418 1029.71 749.32 1030.75 749.32 1032.04V1063.2Z" fill="#597EF7"/>
    <path d="M723.471 1070.78C723.955 1071.54 724.832 1071.96 725.734 1071.96C726.176 1071.96 726.625 1071.86 727.036 1071.64C728.284 1070.99 728.711 1069.55 727.991 1068.43L710.596 1041.26C709.876 1040.14 708.28 1039.75 707.031 1040.4C705.784 1041.05 705.356 1042.49 706.077 1043.61L723.471 1070.78Z" fill="#597EF7"/>
    <path d="M706.399 1089.5C705.959 1089.5 705.513 1089.4 705.104 1089.18L675.146 1073.41C673.905 1072.75 673.48 1071.31 674.197 1070.18C674.913 1069.04 676.499 1068.66 677.741 1069.31L707.699 1085.08C708.939 1085.74 709.364 1087.18 708.648 1088.32C708.168 1089.07 707.295 1089.5 706.399 1089.5Z" fill="#597EF7"/>
    <path d="M664.982 1112.97H699.336C700.759 1112.97 701.912 1111.98 701.912 1110.75C701.912 1109.52 700.759 1108.52 699.336 1108.52H664.982C663.559 1108.52 662.405 1109.52 662.405 1110.75C662.405 1111.98 663.559 1112.97 664.982 1112.97Z" fill="#597EF7"/>
    <path d="M676.446 1152.01C675.549 1152.01 674.677 1151.58 674.197 1150.82C673.48 1149.69 673.905 1148.25 675.146 1147.59L705.104 1131.82C706.345 1131.17 707.932 1131.55 708.648 1132.68C709.364 1133.82 708.94 1135.26 707.699 1135.92L677.741 1151.69C677.332 1151.91 676.886 1152.01 676.446 1152.01Z" fill="#597EF7"/>
    <path d="M707.032 1180.6C707.443 1180.81 707.891 1180.92 708.334 1180.92C709.235 1180.92 710.113 1180.49 710.596 1179.74L727.991 1152.57C728.711 1151.45 728.284 1150.01 727.036 1149.36C725.787 1148.71 724.192 1149.09 723.472 1150.22L706.077 1177.39C705.356 1178.51 705.784 1179.95 707.032 1180.6Z" fill="#597EF7"/>
    <path d="M751.772 1191.29C750.418 1191.29 749.32 1190.25 749.32 1188.96V1157.8C749.32 1156.51 750.418 1155.47 751.772 1155.47C753.127 1155.47 754.225 1156.51 754.225 1157.8V1188.96C754.225 1190.25 753.127 1191.29 751.772 1191.29Z" fill="#597EF7"/>
    <path d="M792.404 1179.74C792.887 1180.49 793.764 1180.92 794.666 1180.92C795.109 1180.92 795.557 1180.81 795.968 1180.6C797.216 1179.95 797.644 1178.51 796.923 1177.39L779.528 1150.22C778.808 1149.09 777.213 1148.71 775.964 1149.36C774.716 1150.01 774.289 1151.45 775.009 1152.57L792.404 1179.74Z" fill="#597EF7"/>
    <path d="M826.554 1152.01C826.114 1152.01 825.668 1151.91 825.259 1151.69L795.301 1135.92C794.06 1135.26 793.636 1133.82 794.352 1132.68C795.068 1131.55 796.655 1131.16 797.896 1131.82L827.854 1147.59C829.095 1148.25 829.52 1149.69 828.803 1150.82C828.323 1151.58 827.451 1152.01 826.554 1152.01Z" fill="#597EF7"/>
    <path d="M803.664 1112.97H838.018C839.441 1112.97 840.595 1111.98 840.595 1110.75C840.595 1109.52 839.441 1108.52 838.018 1108.52H803.664C802.241 1108.52 801.088 1109.52 801.088 1110.75C801.088 1111.98 802.241 1112.97 803.664 1112.97Z" fill="#597EF7"/>
    <path d="M796.601 1089.5C795.704 1089.5 794.832 1089.07 794.352 1088.32C793.636 1087.18 794.061 1085.74 795.301 1085.08L825.259 1069.31C826.501 1068.66 828.087 1069.04 828.803 1070.18C829.52 1071.31 829.095 1072.75 827.854 1073.41L797.896 1089.18C797.487 1089.4 797.041 1089.5 796.601 1089.5Z" fill="#597EF7"/>
    <path d="M775.964 1071.64C776.375 1071.86 776.824 1071.96 777.266 1071.96C778.168 1071.96 779.045 1071.53 779.529 1070.78L796.923 1043.61C797.644 1042.49 797.216 1041.05 795.969 1040.4C794.719 1039.75 793.124 1040.14 792.404 1041.26L775.009 1068.43C774.289 1069.55 774.716 1070.99 775.964 1071.64Z" fill="#597EF7"/>
    <path d="M1490.32 590.884C1490.32 592.169 1491.42 593.211 1492.77 593.211C1494.13 593.211 1495.22 592.169 1495.22 590.884V559.855C1495.22 558.569 1494.13 557.527 1492.77 557.527C1491.42 557.527 1490.32 558.569 1490.32 559.855V590.884Z" fill="#597EF7"/>
    <path d="M1464.47 598.437C1464.95 599.189 1465.83 599.609 1466.73 599.609C1467.18 599.609 1467.62 599.508 1468.04 599.295C1469.28 598.648 1469.71 597.215 1468.99 596.094L1451.6 569.035C1450.88 567.915 1449.28 567.53 1448.03 568.178C1446.78 568.825 1446.36 570.258 1447.08 571.378L1464.47 598.437Z" fill="#597EF7"/>
    <path d="M1447.4 617.082C1446.96 617.082 1446.51 616.98 1446.1 616.766L1416.15 601.054C1414.91 600.404 1414.48 598.962 1415.2 597.835C1415.91 596.708 1417.5 596.321 1418.74 596.972L1448.7 612.684C1449.94 613.335 1450.36 614.776 1449.65 615.903C1449.17 616.659 1448.3 617.082 1447.4 617.082Z" fill="#597EF7"/>
    <path d="M1405.98 640.461H1440.34C1441.76 640.461 1442.91 639.469 1442.91 638.246C1442.91 637.023 1441.76 636.031 1440.34 636.031H1405.98C1404.56 636.031 1403.41 637.023 1403.41 638.246C1403.41 639.469 1404.56 640.461 1405.98 640.461Z" fill="#597EF7"/>
    <path d="M1417.45 679.344C1416.55 679.344 1415.68 678.921 1415.2 678.165C1414.48 677.038 1414.91 675.596 1416.15 674.946L1446.1 659.234C1447.35 658.583 1448.93 658.97 1449.65 660.097C1450.36 661.224 1449.94 662.665 1448.7 663.316L1418.74 679.027C1418.33 679.242 1417.89 679.344 1417.45 679.344Z" fill="#597EF7"/>
    <path d="M1448.03 707.822C1448.44 708.035 1448.89 708.137 1449.33 708.137C1450.24 708.137 1451.11 707.716 1451.6 706.965L1468.99 679.906C1469.71 678.785 1469.28 677.352 1468.04 676.705C1466.79 676.058 1465.19 676.442 1464.47 677.563L1447.08 704.621C1446.36 705.742 1446.78 707.175 1448.03 707.822Z" fill="#597EF7"/>
    <path d="M1492.77 718.473C1491.42 718.473 1490.32 717.431 1490.32 716.145V685.116C1490.32 683.831 1491.42 682.789 1492.77 682.789C1494.13 682.789 1495.22 683.831 1495.22 685.116V716.145C1495.22 717.431 1494.13 718.473 1492.77 718.473Z" fill="#597EF7"/>
    <path d="M1533.4 706.965C1533.89 707.716 1534.76 708.137 1535.67 708.137C1536.11 708.137 1536.56 708.035 1536.97 707.822C1538.22 707.175 1538.64 705.742 1537.92 704.621L1520.53 677.563C1519.81 676.442 1518.21 676.058 1516.96 676.705C1515.72 677.352 1515.29 678.785 1516.01 679.906L1533.4 706.965Z" fill="#597EF7"/>
    <path d="M1567.55 679.344C1567.11 679.344 1566.67 679.242 1566.26 679.027L1536.3 663.316C1535.06 662.665 1534.64 661.224 1535.35 660.097C1536.07 658.97 1537.65 658.583 1538.9 659.234L1568.85 674.946C1570.09 675.596 1570.52 677.038 1569.8 678.165C1569.32 678.921 1568.45 679.344 1567.55 679.344Z" fill="#597EF7"/>
    <path d="M1544.66 640.461H1579.02C1580.44 640.461 1581.59 639.469 1581.59 638.246C1581.59 637.023 1580.44 636.031 1579.02 636.031H1544.66C1543.24 636.031 1542.09 637.023 1542.09 638.246C1542.09 639.469 1543.24 640.461 1544.66 640.461Z" fill="#597EF7"/>
    <path d="M1537.6 617.082C1536.7 617.082 1535.83 616.659 1535.35 615.903C1534.64 614.776 1535.06 613.335 1536.3 612.684L1566.26 596.972C1567.5 596.322 1569.09 596.708 1569.8 597.835C1570.52 598.962 1570.09 600.403 1568.85 601.054L1538.9 616.766C1538.49 616.98 1538.04 617.082 1537.6 617.082Z" fill="#597EF7"/>
    <path d="M1516.96 599.295C1517.38 599.508 1517.82 599.609 1518.27 599.609C1519.17 599.609 1520.05 599.189 1520.53 598.437L1537.92 571.379C1538.64 570.258 1538.22 568.825 1536.97 568.178C1535.72 567.53 1534.12 567.915 1533.4 569.035L1516.01 596.094C1515.29 597.215 1515.72 598.648 1516.96 599.295Z" fill="#597EF7"/>
    <path d="M2054.32 1203.51C2054.32 1204.81 2055.42 1205.86 2056.77 1205.86C2058.13 1205.86 2059.22 1204.81 2059.22 1203.51V1172.23C2059.22 1170.94 2058.13 1169.89 2056.77 1169.89C2055.42 1169.89 2054.32 1170.94 2054.32 1172.23V1203.51Z" fill="#597EF7"/>
    <path d="M2028.47 1211.12C2028.95 1211.88 2029.83 1212.3 2030.73 1212.3C2031.18 1212.3 2031.62 1212.2 2032.04 1211.99C2033.28 1211.34 2033.71 1209.89 2032.99 1208.76L2015.6 1181.49C2014.88 1180.36 2013.28 1179.97 2012.03 1180.62C2010.78 1181.28 2010.36 1182.72 2011.08 1183.85L2028.47 1211.12Z" fill="#597EF7"/>
    <path d="M2011.4 1229.92C2010.96 1229.92 2010.51 1229.81 2010.1 1229.6L1980.15 1213.76C1978.91 1213.11 1978.48 1211.65 1979.2 1210.52C1979.91 1209.38 1981.5 1208.99 1982.74 1209.65L2012.7 1225.48C2013.94 1226.14 2014.36 1227.59 2013.65 1228.73C2013.17 1229.49 2012.3 1229.92 2011.4 1229.92Z" fill="#597EF7"/>
    <path d="M1969.98 1253.48H2004.34C2005.76 1253.48 2006.91 1252.48 2006.91 1251.25C2006.91 1250.02 2005.76 1249.02 2004.34 1249.02H1969.98C1968.56 1249.02 1967.41 1250.02 1967.41 1251.25C1967.41 1252.48 1968.56 1253.48 1969.98 1253.48Z" fill="#597EF7"/>
    <path d="M1981.45 1292.67C1980.55 1292.67 1979.68 1292.25 1979.2 1291.48C1978.48 1290.35 1978.91 1288.89 1980.15 1288.24L2010.1 1272.4C2011.35 1271.75 2012.93 1272.14 2013.65 1273.27C2014.36 1274.41 2013.94 1275.86 2012.7 1276.52L1982.74 1292.35C1982.33 1292.57 1981.89 1292.67 1981.45 1292.67Z" fill="#597EF7"/>
    <path d="M2012.03 1321.38C2012.44 1321.59 2012.89 1321.69 2013.33 1321.69C2014.24 1321.69 2015.11 1321.27 2015.6 1320.51L2032.99 1293.24C2033.71 1292.11 2033.28 1290.66 2032.04 1290.01C2030.79 1289.36 2029.19 1289.75 2028.47 1290.88L2011.08 1318.15C2010.36 1319.28 2010.78 1320.72 2012.03 1321.38Z" fill="#597EF7"/>
    <path d="M2056.77 1332.11C2055.42 1332.11 2054.32 1331.06 2054.32 1329.77V1298.49C2054.32 1297.19 2055.42 1296.14 2056.77 1296.14C2058.13 1296.14 2059.22 1297.19 2059.22 1298.49V1329.77C2059.22 1331.06 2058.13 1332.11 2056.77 1332.11Z" fill="#597EF7"/>
    <path d="M2097.4 1320.51C2097.89 1321.27 2098.76 1321.69 2099.67 1321.69C2100.11 1321.69 2100.56 1321.59 2100.97 1321.38C2102.22 1320.72 2102.64 1319.28 2101.92 1318.15L2084.53 1290.88C2083.81 1289.75 2082.21 1289.36 2080.96 1290.01C2079.72 1290.66 2079.29 1292.11 2080.01 1293.24L2097.4 1320.51Z" fill="#597EF7"/>
    <path d="M2131.55 1292.67C2131.11 1292.67 2130.67 1292.57 2130.26 1292.35L2100.3 1276.52C2099.06 1275.86 2098.64 1274.41 2099.35 1273.27C2100.07 1272.14 2101.65 1271.75 2102.9 1272.4L2132.85 1288.24C2134.09 1288.89 2134.52 1290.35 2133.8 1291.48C2133.32 1292.25 2132.45 1292.67 2131.55 1292.67Z" fill="#597EF7"/>
    <path d="M2108.66 1253.48H2143.02C2144.44 1253.48 2145.59 1252.48 2145.59 1251.25C2145.59 1250.02 2144.44 1249.02 2143.02 1249.02H2108.66C2107.24 1249.02 2106.09 1250.02 2106.09 1251.25C2106.09 1252.48 2107.24 1253.48 2108.66 1253.48Z" fill="#597EF7"/>
    <path d="M2101.6 1229.92C2100.7 1229.92 2099.83 1229.49 2099.35 1228.73C2098.64 1227.59 2099.06 1226.14 2100.3 1225.48L2130.26 1209.65C2131.5 1208.99 2133.09 1209.38 2133.8 1210.52C2134.52 1211.65 2134.09 1213.11 2132.85 1213.76L2102.9 1229.6C2102.49 1229.81 2102.04 1229.92 2101.6 1229.92Z" fill="#597EF7"/>
    <path d="M2080.96 1211.99C2081.38 1212.2 2081.82 1212.3 2082.27 1212.3C2083.17 1212.3 2084.05 1211.88 2084.53 1211.12L2101.92 1183.85C2102.64 1182.72 2102.22 1181.28 2100.97 1180.62C2099.72 1179.97 2098.12 1180.36 2097.4 1181.49L2080.01 1208.76C2079.29 1209.89 2079.72 1211.34 2080.96 1211.99Z" fill="#597EF7"/>
    <path fill-rule="evenodd" clip-rule="evenodd" d="M545.125 2532.26C535.053 2532.26 527.117 2524.47 527.901 2515.37L593.467 1753.31H656.297L563.742 2518.3C562.779 2526.24 555.38 2532.26 546.568 2532.26" fill="#FFC53D"/>
    <path fill-rule="evenodd" clip-rule="evenodd" d="M1992.66 2532.26C2002.73 2532.26 2010.67 2524.47 2009.89 2515.37L1944.32 1753.31H1881.49L1974.04 2518.3C1975.01 2526.24 1982.41 2532.26 1991.22 2532.26" fill="#FFC53D"/>
    <path fill-rule="evenodd" clip-rule="evenodd" d="M1981.48 1753.31H556.307C551.133 1753.31 546.291 1751 543.363 1747.13C536.198 1737.68 543.659 1724.81 556.307 1724.81H1981.48C1994.13 1724.81 2001.59 1737.68 1994.42 1747.13C1991.49 1751 1986.66 1753.31 1981.48 1753.31Z" fill="#FFC53D"/>
    <path fill-rule="evenodd" clip-rule="evenodd" d="M1946.41 1772.31H591.373L593.466 1753.31H1944.32L1946.41 1772.31Z" fill="#D48806"/>
    <path fill-rule="evenodd" clip-rule="evenodd" d="M959.312 1703.3H1047.13V1640.87H959.312V1703.3Z" fill="#597EF7"/>
    <path fill-rule="evenodd" clip-rule="evenodd" d="M1100.34 1724.68H909.027C901.232 1724.68 894.914 1718.97 894.914 1711.91C894.914 1704.86 901.232 1699.14 909.027 1699.14H1100.34C1108.13 1699.14 1114.45 1704.86 1114.45 1711.91C1114.45 1718.97 1108.13 1724.68 1100.34 1724.68Z" fill="#597EF7"/>
    <path fill-rule="evenodd" clip-rule="evenodd" d="M1298.26 1644.92H703.978C689.389 1644.92 677.562 1634.22 677.562 1621.02V1293.27C677.562 1280.06 689.389 1269.36 703.978 1269.36H1298.26C1312.85 1269.36 1324.68 1280.06 1324.68 1293.27V1621.02C1324.68 1634.22 1312.85 1644.92 1298.26 1644.92Z" fill="#253368"/>
    <path d="M1834.22 1442.25C1834.22 1398.72 1795.23 1363.07 1747.13 1363.07C1699.03 1363.07 1660.04 1398.72 1660.04 1442.25C1660.04 1459.48 1670.15 1481.73 1686.37 1498.13C1702.46 1514.39 1707.05 1541.76 1707.05 1563.58V1572.14H1787.22V1563.65C1787.22 1541.83 1791.8 1514.51 1807.81 1498.2C1824.09 1481.63 1834.22 1457.4 1834.22 1442.25Z" fill="#FFE58F"/>
    <path d="M1819.89 1442.03C1819.89 1405.68 1787.32 1375.89 1747.13 1375.89C1706.94 1375.89 1674.38 1405.67 1674.38 1442.03C1674.38 1456.44 1682.82 1475.02 1696.38 1488.72C1709.82 1502.3 1719.8 1525.17 1719.8 1543.4V1550.54H1774.47V1543.46C1774.47 1525.22 1784.45 1502.4 1797.82 1488.78C1811.42 1474.94 1819.89 1454.7 1819.89 1442.04V1442.03Z" fill="#FAAD14"/>
    <path d="M1769.23 1612.06H1725.03C1723.48 1612.06 1722.07 1611.16 1721.23 1609.66L1715.22 1595.58H1779.05L1773.04 1609.66C1772.19 1611.16 1770.79 1612.06 1769.24 1612.06H1769.23Z" fill="#253368"/>
    <path d="M1779.97 1539.59H1714.29C1709.41 1539.59 1705.46 1543.17 1705.46 1547.58V1593.64C1705.46 1598.06 1709.41 1601.64 1714.29 1601.64H1779.97C1784.85 1601.64 1788.81 1598.06 1788.81 1593.64V1547.58C1788.81 1543.17 1784.85 1539.59 1779.97 1539.59Z" fill="#597EF7"/>
    <path d="M1752.52 1556.21C1753.33 1556.21 1753.99 1556.81 1753.99 1557.55C1753.99 1558.26 1753.37 1558.85 1752.59 1558.88L1752.52 1558.88H1705.56C1704.75 1558.88 1704.09 1558.28 1704.09 1557.55C1704.09 1556.83 1704.72 1556.25 1705.5 1556.21L1705.56 1556.21H1752.52Z" fill="white"/>
    <path d="M1752.52 1583.8C1753.33 1583.8 1753.99 1584.4 1753.99 1585.13C1753.99 1585.85 1753.37 1586.44 1752.59 1586.47L1752.52 1586.47H1705.56C1704.75 1586.47 1704.09 1585.87 1704.09 1585.13C1704.09 1584.42 1704.72 1583.83 1705.5 1583.8L1705.56 1583.8H1752.52Z" fill="white"/>
    <path d="M1788.54 1570.01C1789.35 1570.01 1790.01 1570.6 1790.01 1571.34C1790.01 1572.06 1789.39 1572.64 1788.6 1572.67L1788.54 1572.67H1741.58C1740.77 1572.67 1740.11 1572.08 1740.11 1571.34C1740.11 1570.62 1740.73 1570.04 1741.52 1570.01L1741.58 1570.01H1788.54Z" fill="white"/>
    <path d="M1753.07 1410.42L1720.24 1455.69C1718.48 1458.15 1720.38 1461.16 1723.56 1461.16H1738.26L1720.18 1492.08C1718.84 1494.58 1722.31 1496.9 1724.44 1494.92L1773.62 1450.2C1776.12 1447.88 1774.34 1443.9 1770.79 1443.9H1748.56L1757.86 1412.4C1758.59 1409.71 1754.72 1408.13 1753.07 1410.42Z" fill="white"/>
    <path fill-rule="evenodd" clip-rule="evenodd" d="M2438.69 1703.29C2564.94 1649.16 2640.19 1791.13 2576.69 1870.17C2499.21 1966.63 2459.52 2077.62 2437.42 2111.06C2418.78 2139.27 2367.7 2208.05 2306.2 2176.35C2249.6 2147.18 2280.45 2032.68 2280.45 2032.68C2280.45 2032.68 2282.95 1770.07 2438.69 1703.29Z" fill="#5B8C00"/>
    <path fill-rule="evenodd" clip-rule="evenodd" d="M2058.96 2154.3C2016.04 2101.81 2000.37 2026.49 2048.27 2007.17C2094.2 1988.65 2170.29 2034.25 2205.53 2122.01C2240.77 2209.76 2261.1 2272.86 2226.63 2283.83C2170.07 2301.83 2115.65 2223.63 2058.96 2154.3Z" fill="#5B8C00"/>
    <path fill-rule="evenodd" clip-rule="evenodd" d="M2510.19 2158.29C2461.64 2209.86 2391.59 2313.6 2347.7 2277.27C2321.1 2255.25 2356.66 2150.97 2453.99 2094.23C2536.79 2045.97 2558.73 2106.72 2510.19 2158.29Z" fill="#7CB305"/>
    <path fill-rule="evenodd" clip-rule="evenodd" d="M2045.65 1800.43C2064.11 1789.17 2087.34 1786.6 2108.53 1792.75C2138.1 1801.34 2182.98 1826.9 2227.39 1900.28C2285.38 1996.09 2315.57 2101.12 2309.6 2167.65C2305.7 2211.16 2246.57 2229.92 2213.49 2198.19C2198.3 2183.62 2182.23 2161.16 2166.5 2127.09C2103.2 1989.99 2044.03 1904.07 2036.97 1895.44C2018.14 1872.42 2004.68 1825.42 2045.65 1800.43Z" fill="#7CB305"/>
    <path fill-rule="evenodd" clip-rule="evenodd" d="M2088.1 1855.11C2088.73 1861.88 2083.18 1867.83 2075.71 1868.4C2068.24 1868.97 2061.68 1863.94 2061.06 1857.17C2060.43 1850.4 2065.98 1844.45 2073.44 1843.89C2080.91 1843.32 2087.47 1848.35 2088.1 1855.11Z" fill="white"/>
    <path fill-rule="evenodd" clip-rule="evenodd" d="M2203.36 1907.63C2203.98 1914.4 2198.44 1920.35 2190.97 1920.92C2183.5 1921.48 2176.94 1916.46 2176.31 1909.69C2175.69 1902.92 2181.23 1896.97 2188.7 1896.4C2196.17 1895.83 2202.73 1900.86 2203.36 1907.63Z" fill="white"/>
    <path fill-rule="evenodd" clip-rule="evenodd" d="M2184.04 2047.46C2184.76 2055.21 2178.4 2062.02 2169.85 2062.67C2161.3 2063.32 2153.79 2057.57 2153.07 2049.81C2152.35 2042.06 2158.7 2035.25 2167.26 2034.6C2175.81 2033.95 2183.32 2039.71 2184.04 2047.46Z" fill="white"/>
    <path fill-rule="evenodd" clip-rule="evenodd" d="M2538.05 1838.49C2538.05 1849.49 2528.21 1858.41 2516.07 1858.41C2503.93 1858.41 2494.1 1849.49 2494.1 1838.49C2494.1 1827.49 2503.93 1818.57 2516.07 1818.57C2528.21 1818.57 2538.05 1827.49 2538.05 1838.49Z" fill="white"/>
    <path fill-rule="evenodd" clip-rule="evenodd" d="M2361.13 1899.32C2361.13 1910.33 2351.29 1919.25 2339.16 1919.25C2327.02 1919.25 2317.18 1910.33 2317.18 1899.32C2317.18 1888.32 2327.02 1879.4 2339.16 1879.4C2351.29 1879.4 2361.13 1888.32 2361.13 1899.32Z" fill="white"/>
    <path fill-rule="evenodd" clip-rule="evenodd" d="M2418.43 2034.55C2418.43 2039.15 2414.32 2042.88 2409.25 2042.88C2404.17 2042.88 2400.06 2039.15 2400.06 2034.55C2400.06 2029.95 2404.17 2026.22 2409.25 2026.22C2414.32 2026.22 2418.43 2029.95 2418.43 2034.55Z" fill="white"/>
    <path fill-rule="evenodd" clip-rule="evenodd" d="M2484.61 2141.03C2484.61 2147.83 2478.53 2153.33 2471.04 2153.33C2463.54 2153.33 2457.47 2147.83 2457.47 2141.03C2457.47 2134.24 2463.54 2128.73 2471.04 2128.73C2478.53 2128.73 2484.61 2134.24 2484.61 2141.03Z" fill="white"/>
    <path d="M2167.67 2168.31C2168.93 2167.22 2170.93 2167.26 2172.14 2168.41L2172.72 2168.98L2173.16 2169.42C2173.95 2170.22 2174.88 2171.19 2175.91 2172.31C2178.85 2175.48 2182.12 2179.28 2185.64 2183.7C2195.66 2196.28 2205.67 2211.28 2215.01 2228.7C2241.66 2278.39 2257.65 2337.41 2257.65 2405.54C2257.65 2407.13 2256.23 2408.41 2254.48 2408.41C2252.74 2408.41 2251.32 2407.13 2251.32 2405.54C2251.32 2338.31 2235.57 2280.14 2209.32 2231.2C2200.15 2214.1 2190.32 2199.37 2180.51 2187.06C2177.28 2183.01 2174.28 2179.5 2171.57 2176.54L2171.06 2175.99C2170.29 2175.16 2169.59 2174.42 2168.96 2173.78L2168.17 2172.97C2167.88 2172.67 2167.67 2172.47 2167.56 2172.37C2166.35 2171.22 2166.4 2169.41 2167.67 2168.31Z" fill="#253368"/>
    <path d="M2406.71 2188.39C2407.76 2187.12 2409.74 2186.86 2411.14 2187.81C2412.54 2188.75 2412.83 2190.55 2411.78 2191.82C2400.26 2205.81 2389.62 2220.86 2379.84 2236.8C2359.17 2270.51 2343.18 2306.65 2331.32 2342.8C2327.17 2355.45 2323.83 2367.19 2321.23 2377.72L2320.7 2379.88C2320.08 2382.46 2319.54 2384.81 2319.09 2386.91L2318.79 2388.29L2318.27 2390.89C2317.98 2392.46 2316.34 2393.51 2314.62 2393.25C2312.9 2392.98 2311.74 2391.5 2312.03 2389.94L2312.21 2389.02C2312.36 2388.27 2312.54 2387.39 2312.75 2386.39L2313.28 2384C2313.78 2381.73 2314.37 2379.21 2315.05 2376.47L2315.63 2374.17C2318.17 2364.11 2321.36 2353.03 2325.25 2341.16C2337.24 2304.64 2353.39 2268.12 2374.31 2234.01C2384.23 2217.85 2395.01 2202.59 2406.71 2188.39Z" fill="#253368"/>
    <path d="M2462 1830.55C2463.21 1831.6 2463.3 1833.32 2462.24 1834.46L2462.1 1834.6C2462.04 1834.66 2461.9 1834.79 2461.7 1834.99L2460.92 1835.76L2460.47 1836.22C2459.11 1837.59 2457.52 1839.25 2455.74 1841.19C2450.61 1846.74 2444.9 1853.43 2438.74 1861.25C2421.1 1883.63 2403.46 1910.58 2386.99 1942.13C2359.56 1994.67 2338.19 2054.59 2325.25 2121.95C2309.52 2203.74 2306.92 2293.1 2319.79 2390.08C2320 2391.65 2318.76 2393.08 2317.03 2393.27C2315.29 2393.45 2313.72 2392.33 2313.51 2390.76C2300.56 2293.23 2303.18 2203.31 2319.01 2120.96C2332.06 2053.08 2353.6 1992.67 2381.27 1939.68C2397.91 1907.81 2415.74 1880.56 2433.59 1857.91L2434.97 1856.17C2440.47 1849.26 2445.62 1843.25 2450.3 1838.14L2450.88 1837.51C2452.56 1835.68 2454.08 1834.1 2455.4 1832.75L2455.76 1832.39C2456.17 1831.97 2456.54 1831.6 2456.87 1831.28L2457.53 1830.64C2458.74 1829.49 2460.74 1829.45 2462 1830.55Z" fill="#253368"/>
    <path d="M2188.13 2000.64C2189.62 1999.81 2191.57 2000.25 2192.47 2001.6L2192.79 2002.09C2193.04 2002.47 2193.34 2002.94 2193.68 2003.47L2194.18 2004.26C2195.03 2005.61 2195.98 2007.17 2197.03 2008.92L2197.9 2010.38C2201.12 2015.81 2204.65 2022.09 2208.41 2029.21L2208.93 2030.19C2221.21 2053.51 2233.48 2080.79 2244.94 2111.79C2277.01 2198.58 2296.53 2297.08 2297.26 2405.53C2297.27 2407.11 2295.86 2408.4 2294.11 2408.41C2292.36 2408.42 2290.94 2407.15 2290.93 2405.56C2290.2 2297.75 2270.81 2199.84 2238.94 2113.61C2227.78 2083.4 2215.83 2056.76 2203.88 2033.92L2203.22 2032.66C2199.13 2024.9 2195.33 2018.13 2191.9 2012.37L2190.86 2010.65C2189.87 2009.01 2188.98 2007.57 2188.2 2006.33L2187.82 2005.75L2187.06 2004.58C2186.16 2003.22 2186.63 2001.46 2188.13 2000.64Z" fill="#253368"/>
    <path fill-rule="evenodd" clip-rule="evenodd" d="M2431.64 2547.81H2158.15C2143.36 2547.81 2131.27 2536.85 2131.27 2523.45V2342.58C2131.27 2329.18 2143.36 2318.21 2158.15 2318.21H2431.64C2446.43 2318.21 2458.52 2329.18 2458.52 2342.58V2523.45C2458.52 2536.85 2446.43 2547.81 2431.64 2547.81Z" fill="#253368"/>
    <path fill-rule="evenodd" clip-rule="evenodd" d="M2476.17 532.346H1796.73V477.094C1796.73 465.109 1807.43 455.392 1820.64 455.392H2452.25C2465.46 455.392 2476.17 465.109 2476.17 477.094V532.346Z" fill="#253368"/>
    <path fill-rule="evenodd" clip-rule="evenodd" d="M2452.25 1064.34H1820.64C1807.43 1064.34 1796.73 1054.62 1796.73 1042.64V525.877H2476.17V1042.64C2476.17 1054.62 2465.46 1064.34 2452.25 1064.34Z" fill="#E4EBF7"/>
    <path fill-rule="evenodd" clip-rule="evenodd" d="M1851.94 491.207C1851.94 498.729 1845.22 504.827 1836.93 504.827C1828.65 504.827 1821.93 498.729 1821.93 491.207C1821.93 483.685 1828.65 477.586 1836.93 477.586C1845.22 477.586 1851.94 483.685 1851.94 491.207Z" fill="#FF7946"/>
    <path fill-rule="evenodd" clip-rule="evenodd" d="M1907.99 491.207C1907.99 498.729 1901.27 504.827 1892.98 504.827C1884.69 504.827 1877.97 498.729 1877.97 491.207C1877.97 483.685 1884.69 477.586 1892.98 477.586C1901.27 477.586 1907.99 483.685 1907.99 491.207Z" fill="#FAAD14"/>
    <path fill-rule="evenodd" clip-rule="evenodd" d="M1964.04 491.207C1964.04 498.729 1957.32 504.827 1949.03 504.827C1940.74 504.827 1934.02 498.729 1934.02 491.207C1934.02 483.685 1940.74 477.586 1949.03 477.586C1957.32 477.586 1964.04 483.685 1964.04 491.207Z" fill="#7CB305"/>
    <path fill-rule="evenodd" clip-rule="evenodd" d="M1870.16 991.094C1866.04 991.094 1862.7 988.064 1862.7 984.327V592.042C1862.7 588.305 1866.04 585.275 1870.16 585.275H2410.15C2414.27 585.275 2417.62 588.305 2417.62 592.042V984.327C2417.62 988.064 2414.27 991.094 2410.15 991.094H1870.16Z" fill="white"/>
    <path d="M2050.24 756.266C2053.35 753.858 2058.05 754.398 2060.4 757.392L2060.52 757.552L2169.19 905.058L2253.24 851.57C2254.24 850.936 2255.4 850.552 2256.61 850.453L2256.87 850.437L2367.93 845.188C2371.75 845.007 2375.02 847.67 2375.22 851.135C2375.41 854.54 2372.58 857.453 2368.85 857.725L2368.65 857.737L2259.58 862.891L2171.35 919.041C2168.22 921.033 2163.91 920.349 2161.71 917.545L2161.59 917.387L2053.32 770.418L1926.79 868.53C1923.93 870.745 1919.66 870.49 1917.14 867.987L1917 867.843C1914.56 865.256 1914.84 861.387 1917.6 859.111L1917.76 858.984L2050.24 756.266Z" fill="#FF7946"/>
    <path d="M2351.48 667.246C2353.61 664.364 2357.92 663.594 2361.1 665.527C2364.23 667.425 2365.1 671.222 2363.11 674.087L2363 674.245L2264.19 807.676C2261.72 811.023 2256.47 811.411 2253.42 808.521L2253.27 808.377L2140.34 694.578L2062.05 742.415C2060.95 743.09 2059.65 743.461 2058.32 743.488L2058.06 743.488L1922.16 741.477C1918.33 741.42 1915.27 738.561 1915.33 735.092C1915.4 731.683 1918.45 728.953 1922.19 728.912L1922.39 728.912L2056.1 730.891L2137.58 681.104C2140.39 679.387 2144.15 679.764 2146.48 681.969L2146.62 682.112L2257.63 793.973L2351.48 667.246Z" fill="#FAAD14"/>
    <path d="M2180.31 752.697C2182.04 751.326 2184.4 750.823 2186.62 751.345L2186.85 751.403L2259.2 770.838L2365.83 755.451C2369.55 754.914 2373.05 757.159 2373.74 760.488L2373.77 760.667C2374.37 764.034 2371.89 767.201 2368.21 767.829L2368.01 767.86L2259.83 783.472C2258.9 783.606 2257.95 783.567 2257.03 783.358L2256.76 783.291L2186.57 764.434L2064.59 861.047C2062.34 862.826 2059.1 863.101 2056.53 861.748L2056.34 861.644L1910.62 779.071C1907.37 777.23 1906.39 773.353 1908.42 770.411C1910.42 767.523 1914.58 766.61 1917.8 768.32L1917.98 768.418L2059.33 848.515L2180.31 752.697Z" fill="#597EF7"/>
    <path fill-rule="evenodd" clip-rule="evenodd" d="M2055.19 636.633H1918.5C1912.9 636.633 1908.32 632.477 1908.32 627.399C1908.32 622.32 1912.9 618.165 1918.5 618.165H2055.19C2060.79 618.165 2065.37 622.32 2065.37 627.399C2065.37 632.477 2060.79 636.633 2055.19 636.633Z" fill="#CCD7EE"/>
    <path fill-rule="evenodd" clip-rule="evenodd" d="M1976.16 680.182H1925.29C1919.67 680.182 1915.11 676.047 1915.11 670.948C1915.11 665.848 1919.67 661.715 1925.29 661.715H1976.16C1981.78 661.715 1986.33 665.848 1986.33 670.948C1986.33 676.047 1981.78 680.182 1976.16 680.182Z" fill="#CCD7EE"/>
    <path d="M2344.75 881.111C2320.92 881.111 2301.66 898.84 2301.66 920.65C2301.66 942.461 2320.92 960.189 2344.75 960.189C2368.57 960.189 2387.83 942.46 2387.83 920.65C2387.83 898.84 2368.57 881.111 2344.75 881.111ZM2344.75 895.984C2359.44 895.984 2371.41 907.001 2371.41 920.65C2371.41 934.3 2359.44 945.315 2344.75 945.315C2330.05 945.315 2318.08 934.3 2318.08 920.65C2318.08 907 2330.05 895.984 2344.75 895.984Z" fill="#CCD7EE"/>
    <path d="M2373.4 899.796C2377.57 898.18 2382.4 899.931 2384.18 903.707C2386.58 908.78 2387.83 914.303 2387.83 919.98C2387.83 924.625 2386.99 929.172 2385.37 933.462C2383.9 937.347 2379.23 939.416 2374.94 938.083C2370.72 936.771 2368.44 932.656 2369.77 928.823L2369.83 928.635C2370.87 925.896 2371.41 922.979 2371.41 919.98C2371.41 916.471 2370.67 913.08 2369.27 909.963L2369.08 909.558C2367.3 905.782 2369.23 901.411 2373.4 899.796Z" fill="#597EF7"/>
    </svg>
